<?xml version="1.0" standalone="no"?>
<!DOCTYPE svg PUBLIC "-//W3C//DTD SVG 20010904//EN"
 "http://www.w3.org/TR/2001/REC-SVG-20010904/DTD/svg10.dtd">
<svg version="1.0" xmlns="http://www.w3.org/2000/svg"
 width="5125.000000pt" height="2888.000000pt" viewBox="0 0 5125.000000 2888.000000"
 preserveAspectRatio="xMidYMid meet">

<g transform="translate(0.000000,2888.000000) scale(0.100000,-0.100000)"
fill="#000000" stroke="none">
<path d="M40558 22345 c-97 -65 -98 -67 -98 -307 0 -222 7 -269 62 -418 39
-108 68 -169 140 -299 32 -57 58 -105 58 -107 0 -7 208 -321 222 -336 7 -7 47
-57 88 -111 124 -164 129 -170 193 -242 206 -233 454 -483 622 -626 77 -66
153 -131 170 -145 107 -93 433 -286 625 -372 25 -11 68 -30 95 -42 28 -12 64
-26 80 -31 17 -4 55 -15 85 -24 114 -33 236 -55 300 -55 36 0 71 -4 78 -9 11
-6 15 -73 18 -307 4 -328 20 -687 34 -798 15 -113 13 -166 -7 -173 -20 -8
-171 13 -187 26 -14 11 -91 25 -266 46 -74 9 -154 21 -177 26 -23 5 -62 9 -87
9 -24 0 -56 4 -70 10 -23 8 -60 15 -236 39 -120 17 -401 75 -550 113 -143 37
-195 50 -230 58 -19 5 -51 13 -70 18 -19 6 -71 20 -115 32 -103 27 -278 86
-333 111 -24 11 -57 22 -73 26 -16 3 -32 10 -35 14 -3 5 -16 9 -29 9 -13 0
-27 5 -30 10 -3 6 -13 10 -22 10 -8 0 -47 15 -86 34 -40 18 -94 44 -122 56
-65 29 -287 140 -300 150 -5 4 -46 27 -90 50 -138 75 -298 181 -478 318 -136
103 -437 409 -437 444 0 5 7 11 15 15 17 6 231 -10 415 -31 133 -16 153 -11
209 48 33 34 35 40 39 123 2 49 -1 129 -8 178 -6 50 -15 149 -20 220 -5 72
-12 165 -16 208 -5 57 -4 77 5 77 18 0 37 -22 54 -61 8 -19 51 -70 95 -114
199 -200 365 -357 462 -437 58 -48 121 -102 141 -120 103 -93 216 -195 234
-213 11 -11 49 -45 85 -75 35 -30 78 -68 95 -84 16 -16 46 -41 65 -55 19 -15
49 -39 65 -54 38 -34 324 -216 435 -276 47 -26 95 -56 108 -66 34 -30 362
-145 412 -145 32 0 90 44 131 97 27 36 28 44 28 133 0 90 -1 97 -27 126 -17
18 -103 68 -213 123 -287 146 -360 189 -584 343 -149 103 -322 240 -480 382
-102 91 -393 380 -505 502 -135 145 -235 255 -240 264 -3 4 -32 39 -66 77 -34
37 -119 133 -189 213 -122 138 -219 238 -332 342 -28 26 -53 51 -55 55 -1 5
-28 25 -58 45 -46 31 -65 37 -113 39 -55 2 -60 1 -98 -37 -43 -42 -69 -86 -69
-116 0 -11 -7 -47 -16 -81 -15 -59 -15 -69 5 -192 11 -71 25 -150 29 -175 19
-92 51 -298 62 -390 6 -52 16 -128 21 -168 10 -80 12 -196 4 -204 -4 -4 -196
58 -295 95 -8 3 -24 8 -35 10 -11 3 -45 14 -75 25 -78 27 -145 42 -218 49 -53
5 -73 2 -130 -21 -37 -14 -80 -37 -97 -50 l-29 -24 1 -135 c2 -128 4 -139 36
-218 44 -110 158 -289 285 -449 223 -281 458 -501 777 -729 217 -156 289 -202
437 -282 413 -225 783 -373 1383 -553 127 -38 461 -111 735 -160 102 -18 379
-52 544 -66 65 -6 123 -13 127 -16 5 -3 131 -5 281 -5 150 0 279 -4 287 -9 10
-5 17 -38 22 -97 4 -48 12 -140 18 -203 9 -99 8 -117 -5 -130 -13 -13 -126
-15 -902 -15 -890 0 -1009 4 -1347 39 -136 15 -241 25 -442 46 -54 5 -161 17
-238 25 -205 24 -309 34 -411 44 -51 5 -97 12 -103 16 -7 3 -60 11 -119 16
-243 23 -278 26 -292 33 -8 3 -55 11 -105 17 -49 6 -121 15 -160 19 -38 5 -97
12 -130 15 -33 4 -71 10 -85 15 -14 5 -61 15 -105 21 -176 24 -203 28 -280 44
-44 8 -109 20 -145 25 -36 6 -90 14 -120 19 -30 5 -86 14 -125 20 -38 6 -79
14 -90 18 -19 6 -92 17 -195 31 -30 4 -60 11 -67 15 -6 4 -45 12 -85 18 -107
15 -177 27 -228 38 -25 6 -91 10 -146 11 l-102 0 -58 -44 c-33 -24 -69 -54
-81 -67 -28 -32 -63 -96 -63 -116 0 -10 -6 -35 -14 -58 -8 -22 -18 -58 -24
-80 -5 -22 -16 -62 -23 -90 -12 -49 -17 -78 -39 -240 -60 -439 -60 -1056 -1
-1610 20 -187 30 -260 41 -295 5 -19 10 -49 10 -67 0 -34 11 -91 36 -179 8
-28 14 -62 14 -77 0 -14 4 -28 9 -31 5 -3 11 -23 14 -43 2 -21 12 -65 22 -98
29 -102 36 -129 42 -160 3 -16 9 -34 13 -40 4 -5 15 -35 25 -65 80 -245 156
-434 221 -550 17 -30 48 -86 69 -125 20 -38 47 -83 59 -100 12 -16 27 -41 34
-55 23 -45 168 -233 236 -307 78 -84 259 -232 399 -327 55 -36 101 -66 103
-66 1 0 40 -21 86 -48 98 -56 270 -141 348 -172 30 -12 64 -26 75 -30 11 -5
54 -20 95 -35 41 -14 83 -30 92 -35 10 -6 34 -14 55 -19 21 -6 56 -15 78 -21
139 -39 310 -70 485 -89 47 -5 112 -14 145 -20 78 -14 795 -15 850 -1 22 6 78
15 125 20 124 15 196 26 275 45 39 9 87 19 108 22 20 3 40 9 43 14 3 5 14 9
25 9 25 0 120 30 134 41 5 5 18 9 30 9 12 0 25 4 30 8 6 4 35 16 65 26 30 10
64 21 75 25 41 16 92 31 107 31 21 0 39 -45 43 -105 13 -190 29 -297 60 -405
7 -25 17 -63 23 -85 31 -116 87 -287 112 -340 15 -33 42 -94 61 -135 18 -41
41 -86 50 -100 9 -14 40 -61 69 -105 103 -156 260 -337 340 -391 116 -79 135
-91 236 -142 199 -102 346 -142 519 -142 218 0 350 47 551 198 66 49 132 105
147 123 85 104 127 159 127 164 0 3 16 27 35 54 19 26 35 51 35 55 0 3 10 23
23 44 13 20 36 69 51 107 16 39 32 79 37 90 15 38 71 200 79 230 4 17 17 57
28 90 29 88 73 272 92 385 5 30 16 96 25 145 68 380 94 1010 61 1495 -9 135
-21 275 -26 312 -6 37 -10 89 -10 117 0 27 -4 72 -10 98 -5 26 -15 89 -21 138
-19 153 -31 223 -73 415 -33 155 -66 291 -76 315 -7 16 -96 363 -130 505 -5
19 -16 60 -24 90 -9 30 -20 73 -25 95 -10 45 -66 269 -83 330 -6 22 -16 60
-23 85 -7 25 -18 65 -24 90 -7 25 -16 59 -21 75 -5 17 -16 62 -25 100 -16 72
-25 109 -44 181 -6 23 -11 55 -11 72 l0 30 78 7 c258 21 505 81 852 205 150
54 171 60 181 54 13 -7 11 -119 -2 -168 -6 -22 -15 -57 -19 -76 -8 -32 -40
-141 -78 -265 -8 -27 -19 -54 -23 -59 -5 -6 -9 -20 -9 -33 0 -13 -4 -31 -9
-41 -5 -9 -17 -53 -26 -97 -16 -74 -16 -85 -1 -141 23 -90 41 -125 78 -161 44
-42 98 -63 188 -73 41 -5 131 -15 200 -24 69 -8 188 -22 265 -30 77 -9 181
-20 230 -26 158 -18 376 -39 515 -49 392 -30 1062 -16 1350 29 387 60 542 91
805 164 194 53 281 78 315 91 19 8 76 28 125 46 170 60 264 131 298 225 20 56
24 265 6 344 -5 25 -13 86 -17 137 -6 82 -5 90 9 82 28 -15 144 -199 207 -329
67 -139 88 -201 127 -370 59 -258 66 -304 95 -600 14 -144 8 -622 -9 -710 -6
-30 -17 -109 -26 -175 -9 -66 -20 -147 -25 -180 -19 -126 -30 -212 -37 -273
-3 -34 -11 -66 -17 -70 -6 -4 -65 -7 -131 -7 -66 0 -239 -1 -386 -3 l-265 -2
-47 -45 c-54 -54 -60 -76 -55 -209 3 -93 4 -96 38 -131 65 -68 66 -68 352 -66
142 1 265 4 274 8 15 6 16 1 10 -37 -4 -24 -10 -49 -15 -55 -4 -5 -29 -61 -56
-123 -28 -66 -57 -119 -69 -127 -12 -7 -68 -16 -126 -20 -58 -4 -150 -13 -204
-20 -93 -13 -101 -16 -138 -52 -22 -21 -44 -47 -50 -58 -14 -24 -11 -108 4
-155 28 -89 36 -97 111 -133 39 -19 87 -38 105 -42 54 -11 56 -31 8 -125 -128
-257 -393 -639 -590 -850 -251 -268 -753 -709 -1061 -930 -94 -68 -99 -71
-285 -192 -63 -41 -149 -97 -190 -124 -41 -27 -100 -62 -130 -78 -30 -16 -77
-42 -105 -58 -52 -30 -228 -117 -375 -185 -104 -49 -207 -88 -280 -107 -60
-16 -167 -52 -215 -72 -67 -28 -352 -102 -475 -124 -25 -4 -67 -13 -95 -20
-96 -23 -121 -29 -205 -44 -122 -21 -212 -34 -320 -46 -52 -5 -135 -14 -185
-20 -49 -6 -175 -15 -280 -20 -104 -5 -247 -13 -317 -16 -190 -10 -849 27
-1148 66 -183 23 -227 30 -290 46 -36 8 -85 19 -110 23 -25 5 -67 14 -95 21
-61 15 -103 24 -175 40 -49 11 -162 40 -275 71 -22 6 -56 17 -75 24 -19 7 -62
21 -95 31 -33 9 -67 20 -75 24 -8 4 -33 13 -55 20 -71 21 -229 81 -278 106
-27 13 -54 24 -60 24 -13 0 -397 188 -417 205 -8 7 -46 29 -85 50 -38 21 -81
46 -95 55 -14 9 -56 38 -95 63 -121 80 -271 193 -342 259 -28 26 -55 48 -60
48 -4 0 -21 13 -38 28 -108 99 -157 117 -244 86 -70 -24 -79 -32 -106 -84 -22
-43 -25 -62 -24 -147 0 -87 3 -103 28 -148 18 -33 49 -66 92 -98 35 -27 91
-72 125 -102 95 -84 292 -229 393 -290 9 -5 31 -20 48 -32 17 -13 36 -23 42
-23 6 0 11 -3 11 -7 0 -15 316 -183 445 -238 22 -9 54 -24 70 -33 46 -24 89
-43 158 -71 15 -6 37 -15 50 -20 30 -12 152 -56 202 -72 22 -7 49 -19 60 -26
11 -7 29 -13 41 -13 11 0 24 -3 28 -7 4 -4 28 -13 54 -21 26 -7 62 -17 80 -22
17 -6 49 -15 70 -21 20 -5 51 -14 67 -19 40 -12 141 -39 185 -50 19 -5 62 -16
95 -25 57 -16 90 -23 203 -44 26 -5 85 -17 132 -26 93 -19 175 -31 290 -43 42
-5 81 -12 88 -16 15 -9 169 -25 337 -35 66 -3 127 -11 135 -16 15 -9 200 -20
559 -31 277 -9 627 17 757 57 17 5 49 9 72 9 22 0 53 5 69 12 27 11 62 16 263
37 47 5 121 17 165 26 77 15 140 27 235 45 59 12 109 27 123 38 7 5 23 12 37
15 14 3 58 14 97 26 40 12 84 21 97 21 14 0 35 4 48 9 13 5 64 22 113 37 50
16 92 32 93 36 2 5 14 8 26 8 12 0 31 7 42 15 10 8 27 15 37 15 9 0 25 4 35 9
9 4 33 14 52 20 128 45 149 52 205 76 22 9 49 20 60 25 11 4 43 18 70 30 28
12 64 28 80 35 17 7 56 24 88 39 32 14 60 26 63 26 7 0 331 162 379 190 22 12
78 44 125 70 160 88 185 103 233 136 26 19 49 34 52 34 8 0 117 73 139 92 11
10 28 20 38 24 10 3 18 9 18 13 0 3 15 15 33 26 30 18 146 103 157 115 3 3 18
14 34 24 16 10 40 29 55 41 14 13 40 34 58 47 217 158 637 567 815 793 35 45
108 141 128 170 14 20 34 48 45 63 23 31 195 301 195 307 0 2 36 61 80 131 68
108 79 132 75 158 -9 45 95 207 200 312 86 86 99 92 240 115 105 18 401 22
548 9 158 -15 171 -11 206 50 11 20 28 43 36 50 35 29 6 181 -49 253 l-28 37
-337 2 -336 3 3 25 c2 14 9 31 14 38 14 17 33 103 53 242 14 96 -39 85 418 82
449 -4 428 -7 500 64 46 46 50 59 45 183 l-3 101 -52 51 -51 52 -304 -2 c-166
0 -309 3 -317 8 -9 6 -12 20 -8 47 4 22 10 64 14 94 5 30 12 60 15 66 10 15
30 129 58 329 18 126 40 408 40 510 0 119 -18 467 -26 510 -3 17 -10 66 -15
110 -20 167 -43 294 -58 324 -6 11 -11 34 -11 50 0 17 -4 39 -9 49 -15 31 -41
119 -41 140 0 12 -4 24 -10 27 -5 3 -10 17 -10 30 0 13 -4 34 -9 47 -5 13 -17
43 -26 68 -20 53 -23 60 -65 165 -58 143 -137 293 -175 331 -8 9 -15 19 -15
23 0 4 -8 16 -17 27 -10 10 -40 46 -66 79 -64 78 -150 167 -240 248 -144 129
-288 237 -316 237 -12 0 -34 6 -49 14 -15 7 -58 16 -97 20 -38 3 -80 9 -91 12
-25 7 -96 -51 -120 -97 -17 -33 -20 -384 -3 -459 5 -25 14 -85 19 -135 11
-100 20 -167 46 -330 19 -120 21 -152 7 -166 -9 -9 -156 -47 -363 -94 -63 -14
-131 -30 -150 -35 -19 -4 -69 -16 -110 -25 -41 -9 -91 -20 -110 -25 -19 -5
-69 -16 -110 -25 -41 -9 -93 -20 -115 -25 -51 -11 -132 -26 -220 -40 -38 -6
-95 -16 -125 -22 -228 -45 -715 -61 -1090 -37 -96 6 -233 14 -305 19 -123 7
-248 17 -465 40 -52 6 -123 10 -158 10 -68 0 -84 12 -64 53 5 12 15 42 22 67
29 101 64 206 72 215 4 5 8 21 8 35 0 14 4 30 8 36 4 5 16 36 26 69 10 33 22
69 27 80 4 11 13 38 19 60 6 22 16 56 21 75 6 19 15 53 20 75 6 22 14 56 19
75 28 111 42 170 49 210 5 25 13 65 19 90 6 25 13 69 16 99 5 52 4 55 -32 88
-20 19 -59 50 -87 69 -42 29 -59 34 -105 34 -48 0 -72 -9 -185 -66 -257 -130
-725 -302 -1195 -439 -25 -7 -83 -25 -130 -39 -98 -29 -123 -32 -139 -12 -12
14 -27 113 -38 248 -5 66 -5 68 22 78 27 10 160 34 285 50 36 5 83 13 105 18
22 5 85 19 140 32 121 26 379 98 495 138 280 96 607 262 930 470 63 41 253
174 260 182 3 3 55 45 115 93 178 141 220 179 419 375 173 172 340 356 460
507 26 33 64 80 84 104 20 24 52 65 70 90 17 25 43 62 57 81 14 19 43 58 65
85 52 65 220 316 255 380 14 28 40 70 56 95 16 25 32 52 36 60 3 8 16 31 28
50 77 124 411 762 427 815 35 111 53 252 44 328 l-7 55 -84 41 c-46 22 -93 41
-104 41 -11 0 -23 5 -26 10 -8 13 -101 13 -157 1 -62 -14 -191 -32 -423 -60
-44 -5 -100 -14 -125 -20 -123 -29 -296 2 -365 66 -11 10 -41 32 -67 48 -27
17 -48 33 -48 38 0 4 -6 7 -13 7 -7 0 -24 11 -39 25 -15 14 -30 25 -34 25 -3
0 -27 15 -53 34 -62 45 -173 100 -246 122 -33 10 -64 22 -70 26 -5 4 -20 8
-33 8 -13 0 -32 5 -42 10 -20 11 -87 26 -180 42 -30 4 -84 14 -120 20 -85 15
-454 15 -550 0 -172 -27 -274 -48 -300 -62 -10 -5 -29 -10 -42 -10 -13 0 -28
-4 -33 -9 -6 -4 -35 -16 -65 -25 -30 -9 -64 -21 -75 -26 -11 -5 -45 -18 -76
-29 -56 -20 -177 -73 -214 -94 -11 -6 -40 -22 -65 -35 -24 -13 -102 -63 -173
-110 -71 -48 -161 -109 -200 -135 -40 -26 -90 -57 -111 -68 -41 -19 -124 -26
-141 -10 -6 4 -46 21 -90 36 -44 15 -91 33 -105 41 -22 11 -69 29 -245 89 -55
20 -119 43 -150 55 -11 5 -31 11 -45 14 -14 3 -50 12 -80 21 -67 20 -94 27
-255 63 -22 5 -57 14 -77 20 -88 28 -106 32 -129 32 -13 1 -35 7 -49 15 -14 8
-37 14 -52 15 -15 0 -29 4 -32 9 -3 5 -23 11 -43 14 -21 3 -65 12 -98 21 -94
26 -137 37 -175 43 -19 3 -39 9 -45 13 -5 4 -26 11 -45 15 -19 4 -39 11 -45
15 -5 4 -26 10 -45 13 -19 3 -60 13 -90 22 -30 9 -72 21 -92 26 -21 5 -55 13
-75 18 -21 5 -63 16 -93 25 -108 32 -125 37 -160 45 -19 4 -45 13 -57 19 -12
7 -33 12 -47 12 -14 0 -28 5 -31 10 -3 6 -17 10 -30 10 -13 0 -34 4 -47 9 -23
10 -104 34 -168 50 -97 26 -156 44 -164 52 -6 5 -22 9 -37 9 -15 0 -31 5 -34
10 -3 6 -13 10 -21 10 -9 0 -40 11 -70 25 -55 25 -230 75 -263 75 -9 0 -46
-20 -83 -45z m627 -585 c97 -11 238 -47 295 -76 26 -13 53 -24 59 -24 37 0
220 -53 244 -71 22 -16 37 -19 65 -14 25 4 67 -3 132 -20 134 -37 169 -44 215
-45 23 0 68 -7 100 -16 33 -9 121 -28 195 -44 74 -15 189 -42 255 -60 66 -17
135 -35 153 -40 18 -4 43 -15 55 -23 12 -8 47 -18 77 -22 35 -4 64 -15 80 -29
67 -60 158 -96 397 -155 89 -23 173 -46 188 -53 31 -14 33 -51 4 -93 -33 -49
-85 -156 -124 -254 -56 -144 -67 -182 -61 -206 3 -13 -5 -56 -18 -97 -30 -88
-74 -245 -110 -388 -15 -58 -31 -118 -36 -135 -5 -16 -12 -48 -15 -70 -4 -22
-14 -64 -22 -92 -14 -51 -16 -53 -48 -53 -40 0 -112 18 -210 53 -38 14 -116
41 -172 61 -96 34 -142 47 -238 65 -48 8 -48 9 -144 80 -41 30 -86 55 -100 57
-23 2 -62 36 -72 61 -2 5 -29 21 -59 36 -69 33 -250 202 -319 297 -36 49 -70
81 -121 114 -39 25 -75 57 -79 70 -5 13 -46 60 -90 104 -59 58 -81 88 -81 106
0 14 -8 31 -17 38 -9 7 -43 39 -76 71 -55 55 -58 60 -52 95 6 36 3 40 -76 117
-110 108 -159 171 -159 203 0 39 -36 92 -70 103 -30 11 -80 80 -134 187 -26
52 -26 52 -10 110 9 31 19 61 22 66 2 5 28 5 56 2 28 -4 83 -11 121 -16z
m4725 -140 c170 -17 229 -31 268 -63 20 -16 66 -45 102 -64 36 -20 98 -56 138
-80 40 -23 84 -43 97 -43 16 0 58 -30 126 -91 57 -50 119 -97 138 -105 23 -10
85 -18 171 -21 103 -4 144 -10 172 -24 55 -28 200 -27 226 1 17 18 33 21 143
23 l124 2 3 -27 c3 -28 -22 -88 -37 -88 -5 0 -11 7 -15 15 -3 8 -10 15 -15 15
-6 0 -8 -27 -4 -69 7 -86 -1 -121 -27 -121 -11 0 -26 -10 -33 -22 -139 -224
-216 -368 -261 -488 -49 -129 -52 -135 -81 -138 -45 -5 -62 -26 -69 -88 -3
-31 -12 -66 -18 -78 -13 -24 -152 -205 -245 -317 -34 -42 -80 -99 -100 -126
-71 -94 -161 -183 -185 -183 -36 0 -46 -12 -77 -86 -36 -85 -80 -139 -125
-154 -21 -7 -48 -29 -71 -58 -51 -66 -178 -194 -255 -257 -36 -29 -108 -75
-160 -102 -73 -37 -101 -57 -120 -87 -16 -24 -59 -61 -120 -101 -158 -103
-174 -111 -207 -99 -23 9 -35 7 -64 -9 -21 -11 -42 -29 -48 -41 -7 -12 -33
-33 -59 -46 -25 -14 -74 -43 -107 -64 -97 -63 -206 -113 -363 -167 -286 -97
-494 -139 -697 -139 -90 0 -134 -4 -154 -14 -15 -8 -45 -16 -67 -18 l-39 -3
-3 45 c-2 32 -11 53 -29 72 -36 37 -40 98 -48 723 -9 732 7 986 86 1305 21 85
24 98 52 201 8 31 29 90 47 133 27 63 38 79 64 90 24 10 35 23 44 55 23 76 70
169 91 181 39 21 185 -23 210 -62 8 -13 39 -54 68 -91 43 -54 59 -67 74 -62
27 9 143 -109 198 -201 46 -79 46 -81 36 -304 -9 -181 -2 -214 62 -269 44 -39
48 -41 115 -41 74 0 121 18 189 71 20 16 44 29 52 29 25 0 30 29 35 205 5 229
-4 274 -66 340 -27 27 -84 103 -126 168 -85 129 -246 301 -408 435 -79 66 -88
76 -88 107 0 24 5 35 19 40 10 3 24 18 30 33 9 21 40 41 133 87 120 59 258
147 258 165 0 22 112 61 207 70 54 6 130 14 168 20 39 5 73 9 77 10 4 0 20 14
35 31 26 27 37 31 113 38 122 12 310 12 420 1z m-8028 -4530 c296 -72 717
-155 987 -196 670 -101 1063 -135 1776 -154 238 -6 406 -15 470 -25 111 -18
783 -33 1485 -35 317 -1 403 -4 435 -15 30 -11 93 -15 252 -15 l211 0 21 28
c19 27 20 27 35 7 8 -11 15 -29 14 -40 -2 -36 22 -104 47 -134 14 -16 28 -44
32 -63 3 -18 12 -42 19 -53 21 -33 50 -130 99 -330 57 -234 74 -304 119 -475
19 -74 49 -198 66 -275 17 -77 36 -153 40 -170 10 -30 86 -346 114 -465 27
-117 35 -193 40 -360 5 -158 19 -260 46 -325 18 -43 25 -767 11 -1115 l-11
-274 -27 -22 -28 -22 0 -144 c0 -130 -16 -306 -34 -376 -4 -16 -19 -32 -37
-40 -25 -12 -33 -25 -51 -85 -111 -375 -172 -528 -254 -636 -23 -31 -43 -69
-46 -90 -4 -27 -21 -52 -67 -99 -103 -106 -102 -106 -300 -106 -194 0 -197 0
-354 96 -63 39 -97 68 -127 109 -41 56 -123 155 -161 195 -12 13 -41 28 -64
34 -54 15 -87 50 -95 103 -4 23 -19 69 -35 102 -57 124 -64 148 -100 340 -41
228 -50 257 -77 270 -28 12 -33 31 -33 141 0 84 -2 92 -26 115 -25 24 -25 25
-22 156 3 122 5 133 27 157 13 14 40 27 62 31 35 6 39 10 39 35 0 23 6 30 32
39 31 11 47 3 48 -21 1 -53 299 225 429 400 35 46 39 56 30 81 -9 25 -5 36 32
90 25 36 52 64 65 67 35 9 93 148 158 379 59 208 94 613 81 929 l-7 175 -37
62 c-35 61 -89 110 -221 205 l-54 39 -129 0 -128 0 -32 -37 c-24 -27 -55 -46
-121 -73 -50 -19 -100 -35 -112 -35 -26 0 -168 -122 -239 -206 -88 -103 -115
-141 -144 -206 -32 -70 -109 -301 -122 -363 -4 -22 -15 -71 -24 -110 -16 -67
-25 -123 -45 -285 -22 -179 -40 -672 -31 -893 4 -117 -1 -125 -91 -151 -35
-10 -106 -31 -158 -46 -398 -119 -871 -180 -1395 -180 -302 0 -429 19 -695
106 -126 42 -147 44 -173 24 -23 -18 -24 -18 -68 11 -71 48 -116 69 -151 70
-92 1 -162 60 -142 118 12 33 86 72 123 65 23 -5 42 5 107 57 142 113 203 177
219 233 28 95 16 186 -33 239 -29 30 -131 67 -188 67 -40 0 -106 -38 -211
-121 -145 -116 -269 -159 -481 -166 -127 -5 -145 -4 -162 12 -11 10 -20 30
-20 44 0 32 -8 44 -38 60 -12 6 -34 30 -47 51 -15 23 -33 40 -44 40 -25 0 -91
125 -91 174 0 19 -12 61 -27 92 -22 43 -34 57 -56 61 -16 3 -35 16 -43 28 -16
25 -134 334 -134 352 0 6 9 15 20 18 21 7 21 15 -5 100 -12 39 -38 137 -55
205 -32 126 -86 451 -112 670 -14 115 -19 1740 -6 1773 11 25 46 22 230 -23z
m4891 -2259 c42 -4 72 -13 78 -22 13 -20 12 -506 -2 -530 -5 -11 -13 -39 -17
-62 -6 -34 -13 -45 -40 -59 -19 -9 -35 -18 -37 -20 -2 -2 -21 -67 -42 -143
-26 -101 -37 -161 -37 -216 -1 -66 -5 -81 -30 -120 -95 -143 -315 -379 -355
-379 -41 0 -44 28 -38 310 8 336 38 565 102 780 9 30 20 69 25 85 55 202 216
411 300 390 14 -4 56 -10 93 -14z"/>
<path d="M45855 21060 c-98 -14 -165 -58 -211 -137 -29 -49 -29 -70 0 -212 19
-89 39 -126 94 -168 54 -41 126 -64 222 -70 74 -5 75 -5 134 35 33 23 63 48
68 56 23 41 48 176 48 258 0 136 -33 185 -150 222 -59 19 -143 25 -205 16z"/>
<path d="M38308 16592 c-25 -11 -205 -180 -257 -242 -44 -52 -48 -63 -61 -142
-9 -62 -11 -144 -7 -294 9 -311 28 -401 108 -488 58 -63 187 -153 233 -161 18
-4 109 -5 202 -3 166 3 170 4 219 32 112 66 210 191 239 304 13 47 16 116 16
313 0 259 -10 359 -44 440 -24 58 -133 146 -271 218 -60 31 -61 31 -210 30
-82 0 -157 -3 -167 -7z"/>
<path d="M41350 16143 c-46 -7 -128 -44 -148 -66 -11 -12 -35 -51 -54 -86
l-33 -65 0 -210 c0 -233 2 -241 76 -354 32 -49 34 -50 119 -71 53 -13 118 -21
170 -21 80 0 87 2 149 39 134 80 201 202 201 368 0 98 -20 207 -53 288 -31 75
-83 115 -200 156 -79 28 -151 35 -227 22z"/>
<path d="M22800 19620 c-172 -15 -369 -53 -540 -104 -249 -73 -335 -112 -507
-230 -195 -135 -378 -299 -570 -512 -82 -91 -216 -300 -255 -399 -9 -22 -35
-80 -58 -130 -64 -138 -67 -145 -91 -215 -42 -127 -68 -257 -90 -445 -15 -121
-16 -565 -11 -3557 l2 -1678 38 -19 c64 -32 137 -41 346 -41 206 0 439 19 531
43 43 12 50 17 56 44 3 18 9 958 13 2090 8 2147 17 2940 36 3033 6 30 18 75
25 100 40 127 67 207 76 222 5 10 9 22 9 28 0 28 153 306 226 410 134 190 357
341 610 411 73 21 101 22 379 23 271 0 310 -2 400 -21 151 -33 229 -60 364
-127 94 -46 275 -181 347 -259 97 -103 236 -389 286 -587 39 -157 49 -403 23
-620 -21 -174 -31 -222 -65 -305 -5 -11 -30 -73 -56 -138 -55 -138 -112 -227
-226 -357 -192 -218 -458 -358 -803 -423 -100 -19 -224 -26 -745 -41 -228 -6
-421 -15 -427 -19 -10 -6 -13 -105 -13 -437 0 -332 3 -431 13 -437 6 -4 253
-8 547 -7 412 0 540 3 558 13 13 7 70 19 125 27 548 76 1099 287 1382 529 94
81 344 340 376 390 17 28 52 88 77 135 24 47 52 99 62 115 100 171 159 346
209 623 62 334 45 901 -34 1177 -9 33 -21 74 -25 90 -13 48 -56 176 -78 230
-39 97 -174 361 -215 420 -172 247 -231 319 -335 403 -26 20 -49 39 -52 42
-34 38 -343 230 -368 230 -3 0 -15 8 -26 18 -31 27 -299 126 -491 182 -41 12
-272 55 -370 70 -101 14 -539 21 -665 10z"/>
<path d="M385 19448 c-2 -7 -6 -962 -10 -2123 -3 -1160 -10 -2204 -14 -2320
-7 -220 11 -781 29 -865 5 -25 9 -66 10 -92 0 -26 5 -67 10 -90 6 -24 20 -90
31 -148 12 -58 25 -121 29 -140 9 -42 47 -167 60 -195 4 -11 23 -56 40 -100
50 -123 94 -204 168 -302 78 -106 204 -249 248 -284 17 -13 63 -49 100 -80 97
-79 212 -154 286 -188 35 -16 106 -49 158 -73 137 -65 239 -98 375 -122 190
-34 327 -38 1275 -33 900 4 1054 9 1123 36 16 6 39 11 53 11 16 0 24 6 25 18
6 76 -5 808 -13 813 -5 3 -210 9 -456 12 -749 12 -1312 26 -1417 38 -372 39
-582 120 -754 289 -129 127 -164 182 -219 345 -119 351 -129 474 -137 1695
-17 2834 -28 3895 -39 3902 -6 4 -224 8 -484 8 -369 0 -473 -3 -477 -12z"/>
<path d="M32307 17538 c-319 -321 -647 -656 -729 -745 -82 -89 -155 -164 -162
-166 -16 -6 -166 -192 -166 -205 0 -6 6 -12 13 -15 6 -2 183 -2 393 1 l381 5
16 -24 c15 -21 16 -108 10 -1074 -7 -1272 -1 -1416 71 -1697 24 -91 40 -143
56 -183 4 -11 25 -63 46 -115 58 -144 87 -196 201 -365 12 -18 54 -61 94 -96
39 -35 84 -75 98 -89 141 -133 494 -299 756 -355 44 -9 87 -19 95 -21 30 -10
219 -45 325 -61 202 -30 533 -17 565 22 7 8 9 151 8 410 -3 342 -5 399 -18
405 -8 5 -94 18 -190 30 -462 58 -740 150 -904 302 -62 57 -79 79 -104 140
-38 91 -72 192 -72 213 0 8 -4 23 -9 33 -34 61 -62 451 -56 762 2 107 6 531
10 942 5 534 11 750 19 757 11 9 285 22 901 42 198 6 374 15 390 18 l30 7 3
396 c2 350 0 398 -14 412 -12 13 -40 16 -137 16 -67 0 -196 5 -287 10 -91 5
-325 14 -520 20 -195 6 -359 15 -366 21 -7 5 -16 78 -23 187 -6 97 -16 245
-21 327 -6 83 -10 180 -10 217 0 94 -3 98 -63 98 l-50 0 -580 -582z"/>
<path d="M17505 17334 c-265 -29 -415 -53 -555 -92 -79 -22 -186 -55 -205 -62
-191 -76 -212 -87 -351 -182 -125 -85 -216 -161 -379 -314 -105 -99 -146 -147
-241 -282 -151 -212 -180 -264 -254 -445 -33 -84 -65 -161 -69 -172 -21 -50
-73 -214 -82 -255 -50 -244 -66 -366 -89 -688 -10 -137 -10 -209 0 -350 20
-283 25 -320 70 -517 5 -22 13 -60 19 -85 20 -87 56 -186 79 -214 12 -16 22
-34 22 -40 0 -32 160 -345 233 -455 138 -209 270 -359 401 -455 269 -199 588
-351 941 -450 256 -72 376 -86 724 -86 335 0 500 15 721 66 71 17 81 20 219
64 165 53 402 163 590 271 75 44 134 109 158 174 6 17 14 38 18 48 6 15 -43
69 -261 283 l-269 265 -42 -5 c-23 -3 -81 -24 -130 -46 -159 -75 -309 -127
-456 -161 -84 -20 -122 -22 -442 -22 -380 0 -422 4 -585 55 -148 47 -226 86
-430 216 -138 87 -328 317 -429 518 -28 56 -51 107 -51 113 0 6 -4 19 -10 29
-14 25 -56 176 -70 252 -6 36 -16 88 -21 115 -6 28 -13 142 -16 255 -4 182 -3
219 17 325 11 66 25 143 30 170 23 129 61 269 88 321 5 11 31 63 57 116 61
127 209 349 276 417 84 85 203 167 334 231 163 79 234 108 292 120 207 43 221
44 423 45 217 0 361 -17 463 -55 122 -46 308 -195 320 -257 3 -15 15 -66 26
-113 17 -70 21 -119 21 -281 0 -210 1 -203 -62 -346 -24 -55 -95 -159 -146
-214 -46 -49 -64 -61 -154 -96 -153 -60 -341 -103 -533 -122 -55 -6 -244 -15
-420 -21 -391 -14 -366 -5 -379 -142 -4 -54 -4 -207 0 -349 l9 -253 355 -4
c345 -4 595 6 745 29 39 6 99 15 135 19 160 20 420 103 570 182 312 165 487
317 651 568 93 142 119 189 151 274 68 183 79 278 66 596 -19 506 -36 579
-196 832 -59 94 -92 134 -165 201 -143 130 -285 222 -452 292 -36 15 -175 55
-265 76 -19 4 -66 15 -105 24 -38 9 -99 20 -135 25 -36 5 -121 16 -190 25
-120 15 -502 28 -585 19z"/>
<path d="M28584 17330 c-491 -36 -979 -207 -1324 -464 -91 -68 -111 -86 -208
-185 -129 -132 -215 -240 -304 -384 -122 -196 -150 -250 -218 -417 -12 -30
-28 -68 -35 -85 -61 -145 -114 -390 -164 -755 -34 -248 -19 -711 29 -930 5
-25 17 -76 25 -115 16 -71 64 -220 91 -285 9 -19 20 -46 26 -60 6 -14 14 -34
19 -45 18 -43 110 -242 127 -272 73 -137 263 -395 361 -493 102 -101 304 -239
491 -334 52 -27 102 -54 110 -60 23 -18 57 -33 155 -66 304 -104 350 -118 520
-151 55 -10 122 -24 148 -29 65 -13 770 -13 822 1 22 6 87 19 145 29 257 47
433 107 708 241 89 43 167 79 172 79 38 0 190 131 190 163 0 10 7 33 16 50 9
18 21 40 26 51 8 16 -28 56 -251 277 -143 142 -269 263 -280 268 -34 19 -55
13 -202 -58 -288 -139 -494 -187 -844 -197 -281 -9 -496 25 -720 112 -236 93
-439 252 -609 477 -70 93 -183 309 -211 405 -9 31 -21 68 -26 82 -11 31 -34
141 -51 240 -17 102 -17 527 0 650 22 158 55 271 122 415 97 209 118 248 197
368 96 145 164 219 273 294 82 55 224 129 305 158 28 10 77 28 110 41 279 106
788 107 1002 1 123 -61 225 -143 259 -209 48 -93 67 -227 62 -443 -4 -193 -15
-245 -76 -355 -86 -155 -153 -211 -350 -294 -164 -69 -306 -89 -807 -111 -71
-3 -194 -10 -272 -17 -130 -10 -144 -13 -165 -35 -31 -34 -36 -104 -30 -421 4
-203 8 -267 19 -277 19 -20 623 -20 888 0 403 30 717 106 990 240 185 90 395
276 535 475 41 58 77 107 80 110 33 30 95 161 135 285 44 136 48 176 42 453
-11 474 -24 577 -93 730 -13 29 -24 54 -24 57 0 2 -34 57 -75 122 -127 203
-294 349 -530 464 -178 87 -498 165 -810 199 -135 14 -396 20 -521 10z"/>
<path d="M5303 17225 l-23 -16 0 -1652 c0 -1109 4 -1679 11 -1736 18 -151 40
-295 51 -336 23 -94 32 -124 55 -190 52 -145 92 -225 158 -313 76 -102 214
-233 333 -318 105 -75 131 -89 242 -134 30 -12 69 -28 85 -35 26 -11 121 -46
205 -75 22 -8 123 -32 186 -45 254 -52 1023 -78 2154 -73 l565 3 0 2465 0
2465 -420 2 c-254 2 -426 -1 -435 -7 -13 -8 -16 -248 -20 -2027 l-5 -2018
-540 -3 c-492 -2 -553 0 -690 18 -435 58 -765 214 -849 401 -16 35 -33 72 -38
82 -19 37 -76 225 -91 297 -52 256 -57 419 -66 1907 -5 1041 -10 1326 -19
1335 -10 10 -109 14 -420 16 -358 2 -410 1 -429 -13z"/>
<path d="M10403 17230 c-27 -11 -27 1 -7 -180 8 -80 19 -185 24 -235 12 -112
27 -216 39 -275 20 -96 85 -366 92 -385 4 -11 20 -54 34 -95 15 -41 38 -99 51
-128 13 -29 24 -55 24 -57 0 -3 18 -43 40 -89 63 -130 225 -366 339 -491 117
-128 263 -248 356 -294 68 -32 81 -55 49 -81 -8 -8 -42 -47 -76 -89 -33 -42
-84 -101 -112 -132 -59 -64 -198 -217 -233 -257 -75 -84 -188 -232 -245 -318
-77 -116 -122 -203 -183 -351 -9 -21 -20 -46 -25 -55 -6 -10 -10 -24 -10 -31
0 -8 -7 -28 -16 -46 -15 -30 -34 -90 -54 -171 -24 -96 -30 -119 -40 -165 -6
-27 -15 -66 -20 -85 -12 -49 -37 -224 -51 -355 -6 -60 -9 -201 -7 -312 l3
-202 30 -31 30 -31 295 4 c290 4 411 14 520 40 l55 13 7 150 c14 309 43 533
95 734 8 30 19 71 23 90 36 145 169 403 301 583 119 163 319 356 407 393 81
33 162 55 259 70 l102 15 78 -37 c176 -83 416 -286 522 -438 51 -74 166 -289
190 -356 7 -19 17 -44 21 -55 5 -11 16 -42 25 -70 10 -27 21 -59 25 -70 16
-41 54 -186 69 -265 35 -185 50 -321 61 -557 6 -132 11 -179 24 -197 28 -43
76 -49 361 -42 282 6 398 16 460 39 l40 15 3 334 c4 360 -4 480 -44 688 -25
124 -30 142 -64 210 -10 19 -48 109 -86 200 -75 184 -158 334 -287 520 -132
190 -151 210 -195 210 -44 0 -62 14 -62 50 0 14 -4 31 -9 38 -15 24 -94 114
-168 192 -40 42 -73 84 -73 93 0 9 11 40 25 69 18 41 66 94 200 228 341 338
434 472 565 810 22 58 45 114 50 125 8 18 50 150 70 220 16 56 58 300 69 400
16 141 15 479 -1 493 -15 12 -847 16 -864 5 -6 -5 -14 -46 -18 -93 -9 -125
-23 -252 -41 -365 -8 -55 -17 -116 -20 -135 -17 -114 -49 -232 -98 -360 -63
-169 -267 -432 -472 -609 -98 -85 -264 -203 -311 -222 -56 -22 -209 -36 -251
-24 -88 26 -250 137 -383 262 -82 77 -246 286 -317 403 -135 223 -228 550
-263 925 -6 61 -14 133 -18 160 l-7 50 -135 6 c-217 10 -743 9 -767 -1z"/>
<path d="M45919 14979 c-92 -50 -136 -103 -170 -203 -51 -152 -33 -241 71
-351 62 -65 137 -95 239 -95 60 0 72 4 133 43 74 46 85 63 132 199 27 78 36
168 19 191 -5 7 -17 32 -26 57 -22 58 -98 137 -162 166 -75 36 -163 33 -236
-7z"/>
<path d="M48416 14969 c-32 -5 -81 -21 -109 -37 -41 -23 -57 -41 -84 -91 -33
-62 -33 -64 -33 -194 0 -120 2 -137 26 -187 32 -70 48 -86 108 -117 89 -45
268 -42 367 8 42 21 50 30 73 89 10 25 22 53 27 62 5 10 9 71 9 136 0 92 -4
129 -20 172 -38 104 -80 137 -199 157 -86 14 -85 14 -165 2z"/>
<path d="M47160 14370 c-103 -8 -169 -25 -272 -72 -62 -28 -70 -35 -93 -84
-54 -115 -23 -261 73 -344 47 -40 145 -92 227 -121 l50 -17 3 -64 c2 -35 -2
-81 -8 -103 -55 -194 -75 -232 -142 -266 -38 -19 -42 -19 -171 -3 -73 9 -197
19 -277 21 -137 3 -147 2 -185 -19 -37 -22 -41 -28 -47 -78 -5 -30 -5 -96 -2
-146 l6 -92 48 -48 c27 -27 61 -52 77 -56 15 -3 55 -14 88 -24 51 -15 99 -18
310 -19 244 0 251 1 300 24 28 14 70 39 95 57 110 78 158 81 249 16 36 -26 89
-59 116 -71 68 -32 200 -44 403 -37 152 5 168 7 220 33 80 38 166 122 181 175
7 24 17 57 22 74 5 17 9 52 9 79 0 45 -3 52 -51 98 l-52 50 -109 -7 c-61 -4
-121 -11 -135 -17 -35 -13 -247 -10 -317 5 -77 16 -84 26 -111 161 -6 28 -18
74 -46 171 -17 61 -6 84 41 84 55 0 224 132 286 224 43 65 44 68 44 147 0 60
-5 89 -20 120 -45 87 -128 133 -275 150 -89 10 -389 9 -535 -1z"/>
</g>
</svg>
