<?xml version="1.0" standalone="no"?>
<!DOCTYPE svg PUBLIC "-//W3C//DTD SVG 20010904//EN"
 "http://www.w3.org/TR/2001/REC-SVG-20010904/DTD/svg10.dtd">
<svg version="1.0" xmlns="http://www.w3.org/2000/svg"
 width="5125.000000pt" height="2888.000000pt" viewBox="0 0 5125.000000 2888.000000"
 preserveAspectRatio="xMidYMid meet">

<g transform="translate(0.000000,2888.000000) scale(0.100000,-0.100000)"
fill="#000000" stroke="none">
<path d="M19157 28325 c-67 -15 -84 -25 -157 -98 -81 -79 -131 -138 -143 -166
-17 -39 -16 -740 1 -810 7 -30 28 -90 48 -133 19 -43 42 -115 50 -160 11 -60
23 -93 43 -118 38 -49 48 -68 56 -120 9 -55 19 -75 61 -123 19 -20 34 -43 34
-50 0 -40 35 -122 69 -161 22 -25 46 -67 55 -94 9 -27 30 -62 47 -78 17 -16
42 -52 56 -80 13 -29 35 -62 48 -74 14 -13 36 -54 51 -92 18 -47 36 -76 59
-93 21 -16 40 -46 54 -82 12 -31 35 -72 53 -91 17 -20 39 -54 49 -77 10 -22
32 -54 50 -70 17 -17 44 -57 59 -90 15 -33 37 -69 50 -80 12 -11 35 -46 51
-77 16 -32 41 -65 55 -74 14 -10 40 -47 59 -83 18 -36 43 -75 55 -86 12 -11
32 -40 45 -65 13 -25 37 -55 54 -68 17 -12 39 -39 50 -60 11 -20 34 -50 51
-67 18 -16 44 -55 60 -85 15 -30 38 -64 50 -75 13 -11 38 -43 57 -72 18 -29
42 -57 53 -63 11 -6 27 -25 36 -43 9 -18 37 -56 63 -84 104 -118 129 -150 157
-193 41 -64 146 -185 316 -362 57 -59 117 -122 135 -140 17 -18 39 -40 48 -48
8 -8 31 -31 50 -50 19 -19 47 -47 62 -61 16 -14 35 -33 43 -42 8 -9 49 -48 90
-86 41 -39 84 -80 95 -92 11 -12 30 -31 43 -43 13 -11 47 -43 76 -71 30 -27
68 -59 84 -70 17 -11 74 -56 127 -100 53 -44 111 -90 128 -102 18 -12 53 -43
78 -68 26 -25 54 -45 63 -45 9 0 35 -17 59 -39 23 -21 64 -48 91 -60 27 -12
71 -41 97 -66 27 -25 54 -45 62 -45 8 0 35 -18 60 -40 25 -22 70 -51 99 -64
29 -13 64 -36 78 -51 14 -15 52 -40 85 -56 32 -16 71 -40 85 -53 14 -13 57
-35 96 -50 39 -15 82 -38 94 -52 13 -13 52 -33 87 -44 76 -23 100 -35 133 -65
14 -13 63 -35 110 -49 49 -15 106 -41 134 -61 35 -25 72 -40 129 -52 54 -11
90 -26 114 -45 37 -29 50 -34 190 -67 45 -11 99 -31 121 -46 39 -26 64 -31
260 -60 56 -8 129 -26 162 -40 78 -33 172 -55 238 -55 68 0 88 -20 96 -92 3
-29 8 -242 10 -473 5 -421 19 -661 50 -840 23 -132 34 -283 41 -530 8 -302 21
-447 50 -551 26 -94 31 -157 16 -198 -8 -18 -24 -29 -64 -42 -50 -15 -75 -16
-283 -5 -154 7 -260 18 -324 32 -192 41 -258 49 -464 59 -239 11 -292 19 -426
61 -83 26 -122 32 -310 44 -218 14 -232 17 -391 74 -39 14 -104 24 -200 31
-182 13 -250 25 -318 57 -49 24 -105 35 -316 64 -42 5 -93 21 -127 39 -59 30
-113 42 -279 60 -77 8 -112 17 -173 46 -60 29 -99 39 -184 50 -138 18 -143 19
-234 60 -55 25 -105 38 -180 48 -116 16 -148 26 -189 60 -34 29 -74 42 -151
51 -37 4 -71 16 -95 32 -59 41 -112 60 -193 72 -55 9 -90 21 -133 47 -42 26
-84 41 -154 55 -53 11 -111 28 -127 39 -69 43 -90 51 -181 69 -79 16 -102 25
-136 54 -29 25 -61 40 -111 52 -52 13 -81 27 -114 56 -33 29 -59 41 -105 50
-43 8 -76 23 -108 48 -27 20 -73 42 -110 53 -46 13 -76 28 -102 54 -27 27 -53
40 -108 54 -55 14 -82 27 -115 58 -35 32 -52 40 -99 46 -48 6 -62 13 -99 50
-26 25 -65 50 -96 61 -28 10 -66 32 -84 49 -18 16 -58 40 -88 53 -30 14 -68
37 -85 52 -16 15 -55 38 -85 50 -30 13 -69 38 -86 56 -17 18 -55 45 -83 60
-29 14 -55 33 -58 42 -3 9 -39 31 -79 49 -45 21 -81 45 -94 64 -12 17 -43 41
-69 55 -26 13 -55 35 -65 49 -9 14 -38 37 -64 51 -26 14 -72 46 -102 70 -192
157 -251 210 -372 333 -13 13 -85 85 -160 160 -76 75 -146 146 -157 157 -10
11 -29 30 -42 42 -75 70 -218 235 -249 288 -14 22 -44 64 -67 93 -24 29 -43
61 -43 72 0 26 38 50 80 50 54 0 151 -28 190 -55 50 -34 76 -42 164 -50 62 -6
92 -15 151 -46 54 -29 97 -42 166 -54 125 -20 154 -29 190 -59 36 -31 74 -41
202 -56 94 -11 272 0 303 18 21 13 107 88 133 115 14 16 45 48 68 72 39 42 42
49 49 122 4 43 2 137 -4 209 -8 106 -16 145 -40 205 -40 100 -50 155 -63 327
-6 98 -16 163 -30 201 -42 118 -60 208 -74 369 -13 159 -24 213 -58 292 -16
36 -13 125 4 136 5 3 9 -2 9 -10 0 -21 39 -46 72 -46 20 0 36 -12 65 -47 21
-27 45 -52 53 -57 8 -5 24 -21 35 -34 24 -30 142 -152 442 -460 497 -508 806
-815 947 -939 94 -83 159 -143 227 -209 31 -30 61 -54 67 -54 7 0 23 -17 37
-38 13 -21 39 -46 57 -57 18 -10 51 -37 74 -59 73 -73 228 -208 293 -255 54
-38 125 -99 196 -168 29 -29 58 -53 64 -53 6 0 36 -24 66 -52 91 -89 148 -134
200 -161 28 -14 61 -37 75 -52 14 -15 41 -35 60 -45 19 -10 54 -39 78 -64 23
-25 49 -46 57 -46 9 0 34 -17 58 -39 23 -21 71 -52 107 -68 36 -16 73 -41 82
-55 9 -14 38 -35 65 -47 26 -13 62 -36 78 -51 17 -16 55 -40 85 -53 30 -14 69
-40 85 -57 17 -18 50 -42 75 -53 25 -11 62 -33 82 -49 20 -15 60 -39 90 -52
29 -13 69 -40 90 -59 20 -20 49 -39 65 -43 80 -18 103 -26 137 -49 57 -39 86
-51 164 -70 40 -9 88 -28 108 -41 64 -44 88 -51 228 -69 122 -16 149 -16 225
-4 82 12 87 15 146 68 33 30 71 73 85 96 14 23 37 56 52 74 35 41 46 99 40
223 -2 36 -10 57 -38 93 -19 26 -45 75 -57 108 -22 61 -23 62 -94 97 -40 19
-82 45 -95 57 -29 27 -59 39 -128 48 -58 8 -86 19 -145 59 -19 13 -58 30 -87
36 -62 15 -84 25 -155 73 -29 19 -66 38 -82 42 -16 3 -49 23 -73 44 -24 21
-67 46 -98 56 -33 10 -71 32 -95 55 -22 21 -62 48 -90 59 -27 12 -61 33 -75
46 -14 13 -51 36 -83 50 -31 15 -67 41 -78 57 -11 16 -44 40 -72 55 -29 14
-67 39 -85 54 -18 16 -52 38 -75 50 -23 12 -53 35 -66 51 -13 16 -42 41 -65
55 -22 14 -52 39 -64 55 -13 15 -42 38 -63 49 -22 11 -57 35 -77 53 -20 18
-57 46 -82 61 -25 15 -56 40 -68 56 -13 16 -38 37 -55 46 -18 9 -53 37 -79 62
-26 25 -70 66 -99 91 -69 60 -138 123 -230 212 -72 69 -146 136 -433 391 -164
146 -232 208 -259 236 -12 13 -32 33 -44 45 -13 11 -64 62 -113 111 -50 50
-94 94 -99 98 -9 9 -79 79 -103 105 -7 7 -53 53 -103 102 -49 49 -97 96 -105
105 -8 9 -31 31 -50 50 -19 19 -45 45 -57 57 -11 13 -34 35 -50 49 -15 15 -40
39 -54 55 -14 16 -36 38 -48 49 -21 19 -174 180 -290 305 -61 67 -133 149
-226 260 -70 83 -118 138 -214 240 -28 30 -51 58 -51 63 0 5 -24 32 -52 61
-29 29 -65 66 -80 82 -15 16 -38 39 -50 52 -13 12 -48 50 -78 83 -30 34 -73
80 -96 103 -22 22 -55 62 -72 88 -18 26 -39 51 -46 55 -7 4 -31 35 -53 68 -21
33 -58 80 -81 105 -23 25 -60 65 -82 90 -114 129 -193 195 -261 219 -106 36
-313 35 -384 -2 -40 -21 -142 -136 -149 -168 -3 -17 -22 -65 -42 -107 -33 -68
-36 -82 -31 -132 4 -31 17 -81 31 -112 19 -43 28 -86 36 -185 19 -228 30 -295
60 -363 31 -71 44 -145 60 -348 8 -99 17 -151 36 -200 45 -117 54 -163 64
-326 8 -127 15 -172 36 -230 47 -129 61 -199 72 -341 8 -102 18 -161 37 -219
33 -100 42 -161 26 -180 -7 -8 -37 -20 -68 -26 -55 -12 -56 -12 -147 34 -70
36 -109 48 -169 56 -102 13 -151 26 -168 46 -23 27 -83 52 -144 59 -99 10
-158 26 -195 51 -49 32 -72 39 -185 59 -102 17 -122 24 -164 56 -33 26 -74 36
-234 55 -113 13 -157 14 -240 6 -145 -16 -177 -29 -259 -112 -62 -62 -72 -78
-84 -128 -16 -68 -18 -267 -4 -343 6 -33 22 -68 40 -91 21 -26 36 -63 50 -123
20 -88 32 -113 75 -174 14 -18 32 -60 41 -93 10 -36 32 -77 54 -104 20 -24 44
-69 54 -100 9 -30 30 -69 45 -87 16 -18 40 -56 55 -84 14 -29 38 -60 52 -70
15 -9 39 -44 54 -78 15 -33 39 -73 54 -88 14 -16 37 -50 50 -75 13 -26 38 -57
56 -70 17 -13 40 -43 50 -67 11 -25 59 -88 108 -142 49 -54 101 -117 115 -140
15 -23 36 -47 47 -53 10 -6 31 -30 45 -55 15 -24 42 -54 61 -66 19 -11 41 -34
49 -50 9 -15 31 -39 50 -52 19 -13 48 -41 63 -63 16 -21 40 -45 54 -52 13 -8
32 -27 42 -43 10 -16 35 -41 56 -54 21 -13 46 -37 56 -53 9 -16 31 -37 48 -47
17 -10 52 -37 77 -59 26 -23 75 -64 110 -93 35 -29 89 -73 119 -98 30 -25 69
-53 85 -63 17 -9 48 -35 70 -58 22 -23 59 -51 82 -63 24 -12 50 -32 59 -46 9
-13 47 -39 85 -56 38 -17 75 -42 84 -55 8 -13 37 -35 64 -49 27 -13 64 -39 84
-57 19 -18 60 -42 92 -53 38 -12 65 -29 79 -48 11 -16 46 -42 76 -57 30 -15
72 -42 93 -58 21 -17 60 -38 86 -47 26 -8 63 -31 81 -50 22 -22 56 -42 97 -56
41 -13 77 -34 103 -59 27 -26 55 -42 90 -50 33 -8 67 -26 95 -50 26 -22 70
-47 107 -59 35 -12 80 -35 101 -52 20 -16 68 -41 106 -54 39 -13 87 -37 108
-53 38 -29 64 -40 140 -61 23 -6 60 -27 82 -46 29 -23 59 -37 99 -45 31 -6 66
-13 78 -15 11 -3 40 -20 64 -39 29 -23 62 -38 104 -46 70 -15 88 -23 136 -61
21 -16 71 -38 122 -52 53 -15 99 -35 119 -52 45 -37 73 -47 154 -55 66 -6 99
-18 198 -72 21 -11 71 -24 112 -29 90 -11 147 -31 186 -63 16 -14 52 -29 81
-34 29 -5 82 -15 118 -21 39 -7 81 -23 105 -39 55 -38 86 -48 189 -62 65 -9
106 -21 151 -45 63 -34 124 -49 235 -60 47 -5 88 -18 148 -47 79 -39 90 -42
232 -54 149 -13 155 -14 345 -85 28 -10 75 -19 105 -19 98 -1 177 -18 260 -55
70 -32 101 -39 238 -55 109 -13 186 -28 252 -50 106 -34 173 -44 405 -60 159
-11 316 -34 430 -64 80 -20 242 -33 515 -41 226 -6 395 -22 525 -50 88 -19
248 -32 480 -40 195 -7 250 -16 263 -43 5 -9 12 -66 16 -127 5 -79 14 -129 32
-180 15 -38 32 -90 39 -115 14 -50 35 -276 35 -380 0 -104 0 -104 -226 -118
-140 -8 -215 -18 -289 -37 -242 -62 -199 -60 -1785 -59 -942 1 -1495 5 -1588
12 -157 12 -418 46 -527 68 -40 8 -193 18 -360 24 -445 15 -487 20 -730 86
-11 3 -162 9 -335 14 -365 10 -460 19 -625 60 -167 41 -233 50 -360 50 -147 0
-337 17 -405 35 -30 8 -89 24 -130 35 -57 16 -125 23 -290 31 -406 17 -555 28
-610 45 -155 45 -212 54 -393 64 -248 13 -343 25 -452 60 -114 37 -119 37
-365 50 -222 12 -263 18 -355 54 -75 30 -164 43 -333 50 -180 8 -261 21 -347
55 -78 32 -188 51 -288 51 -78 0 -358 43 -456 70 -40 11 -141 26 -225 34 -114
11 -169 21 -221 41 -115 43 -188 56 -384 65 -206 10 -263 19 -367 61 -56 23
-103 31 -235 44 -146 15 -175 15 -261 2 l-98 -15 -74 -73 c-68 -68 -75 -79
-86 -134 -6 -33 -27 -92 -47 -132 -40 -82 -47 -126 -62 -398 -9 -149 -17 -204
-46 -323 -42 -170 -55 -274 -55 -442 -1 -189 -27 -553 -49 -686 -37 -217 -43
-348 -48 -1044 -5 -740 5 -1022 48 -1268 26 -151 36 -270 49 -562 10 -244 22
-333 59 -439 24 -69 39 -175 50 -351 8 -120 13 -145 45 -227 20 -51 40 -126
46 -165 5 -40 14 -113 20 -162 8 -68 19 -105 46 -156 29 -56 37 -87 49 -185
13 -102 20 -127 51 -182 27 -50 40 -90 55 -176 11 -62 29 -125 39 -142 42 -67
51 -88 65 -161 10 -54 26 -97 54 -143 26 -43 46 -92 56 -139 17 -81 33 -118
63 -146 13 -11 26 -41 32 -75 14 -73 37 -124 67 -153 13 -12 33 -52 44 -88 12
-42 34 -84 59 -113 21 -26 46 -70 55 -97 9 -27 29 -62 46 -77 16 -16 41 -58
55 -93 14 -36 40 -80 56 -99 16 -19 38 -52 48 -75 10 -23 32 -54 50 -71 18
-16 44 -54 57 -84 13 -30 42 -74 64 -99 21 -25 39 -51 39 -58 0 -7 24 -38 53
-68 28 -30 75 -83 104 -118 169 -204 444 -482 510 -516 15 -8 49 -35 75 -61
26 -25 73 -70 105 -99 32 -28 77 -70 99 -91 23 -22 66 -52 95 -67 30 -14 69
-40 87 -56 18 -15 53 -38 78 -49 24 -12 54 -35 65 -51 12 -16 45 -40 75 -53
29 -13 71 -37 91 -54 21 -17 72 -42 113 -56 41 -14 86 -37 101 -51 14 -14 57
-38 95 -53 38 -16 93 -45 123 -65 29 -20 59 -36 67 -36 17 0 75 -31 122 -65
18 -13 56 -31 85 -40 29 -10 82 -35 118 -57 70 -41 102 -52 181 -63 33 -4 60
-16 89 -41 22 -19 51 -36 63 -39 11 -2 59 -11 106 -20 47 -9 99 -25 115 -36
58 -37 95 -49 197 -65 77 -12 115 -23 151 -45 67 -40 134 -56 267 -64 137 -8
199 -20 260 -50 71 -36 115 -45 265 -55 140 -10 205 -22 279 -54 22 -9 85 -24
140 -33 89 -15 194 -17 886 -16 744 0 794 2 948 22 89 12 205 30 258 41 106
22 275 40 376 40 80 0 193 23 249 49 51 25 165 49 286 60 78 7 105 14 175 49
72 36 99 43 203 56 126 15 161 25 204 55 36 26 125 51 180 51 44 0 74 12 189
75 51 28 159 43 190 26 27 -14 39 -57 46 -161 3 -47 19 -133 35 -190 39 -139
49 -198 60 -366 9 -133 27 -212 56 -258 20 -32 33 -89 50 -226 13 -108 20
-136 54 -205 27 -55 45 -108 55 -167 11 -67 21 -97 45 -130 22 -31 37 -70 51
-138 28 -127 26 -124 65 -170 23 -27 37 -59 45 -98 14 -65 22 -83 61 -132 15
-19 33 -57 40 -85 15 -64 31 -94 63 -124 16 -15 34 -51 46 -91 15 -49 29 -75
56 -99 19 -18 44 -52 54 -75 10 -24 32 -59 49 -78 17 -20 39 -53 49 -75 17
-40 70 -105 167 -208 28 -29 75 -84 105 -121 95 -118 354 -365 415 -397 19 -9
45 -31 57 -49 13 -17 47 -41 77 -55 29 -13 73 -39 98 -58 24 -19 68 -41 96
-49 29 -9 78 -33 110 -55 34 -24 81 -45 114 -52 30 -7 70 -23 87 -36 17 -12
41 -30 54 -39 12 -9 59 -25 103 -35 44 -11 109 -33 144 -50 79 -38 135 -46
420 -58 239 -10 573 -1 671 19 28 6 71 23 95 38 62 39 89 49 145 57 55 8 87
25 121 66 14 16 46 34 81 45 34 11 73 33 97 55 22 20 55 44 72 53 18 9 43 30
55 47 13 17 36 38 53 46 28 15 90 77 217 215 29 32 77 82 106 112 28 29 52 59
52 65 0 6 18 31 39 54 22 23 50 67 64 97 13 30 41 70 61 89 19 19 41 51 47 70
6 20 23 52 39 71 35 45 55 85 69 136 6 23 24 58 40 77 32 40 40 60 70 163 11
39 30 79 42 90 32 29 46 62 58 138 8 52 19 83 46 121 29 43 39 72 56 161 14
75 28 120 45 146 33 47 51 109 59 200 9 107 24 167 55 223 30 53 44 120 55
250 8 115 24 193 46 237 34 66 49 149 59 321 12 202 23 279 55 372 34 101 43
212 55 645 6 212 18 486 26 610 9 124 18 387 21 585 4 335 1 424 -26 799 -5
65 -14 304 -20 530 -13 465 -22 579 -56 710 -35 133 -43 196 -55 424 -8 139
-17 224 -30 270 -10 37 -28 100 -39 140 -11 40 -28 150 -36 245 -12 127 -23
190 -42 242 -39 110 -60 202 -71 312 -9 88 -15 112 -45 165 -34 62 -46 113
-62 261 -5 40 -19 82 -47 134 -33 64 -42 93 -54 182 -11 80 -23 123 -49 176
-44 91 -44 93 -55 201 -7 76 -15 106 -49 175 -35 74 -42 100 -56 214 -14 113
-21 140 -55 210 -33 68 -41 96 -50 185 -14 132 -17 143 -51 210 -33 64 -45
117 -58 255 -10 100 -23 153 -47 190 -28 43 -45 113 -55 228 -8 97 -16 134
-43 201 -40 96 -52 152 -66 306 -12 134 -20 168 -60 251 -32 68 -46 175 -33
248 13 68 35 79 183 90 126 10 202 27 244 54 31 21 118 44 191 52 92 9 155 25
215 55 56 28 136 44 289 56 72 6 90 11 133 40 56 38 89 48 200 63 57 8 98 21
155 51 54 28 104 45 162 55 55 10 94 22 115 38 50 38 70 46 166 66 68 14 105
28 143 54 34 23 77 40 127 51 55 12 82 24 105 46 36 35 133 53 161 29 24 -20
11 -107 -25 -172 -22 -38 -34 -81 -46 -162 -13 -85 -23 -120 -45 -155 -40 -63
-48 -88 -61 -193 -8 -73 -19 -109 -51 -174 -30 -63 -42 -103 -53 -179 -11 -77
-22 -114 -50 -169 -30 -55 -41 -95 -56 -187 -15 -90 -27 -132 -54 -185 -20
-37 -40 -93 -45 -123 -44 -262 -45 -279 -21 -383 30 -126 49 -158 123 -205 35
-21 70 -47 78 -56 25 -31 87 -56 138 -56 71 0 212 -26 266 -50 95 -40 159 -51
376 -61 244 -11 314 -21 379 -54 67 -33 135 -43 336 -50 270 -9 459 -24 570
-47 285 -57 438 -64 1600 -74 722 -7 1754 7 1981 27 101 8 142 17 304 63 30 9
123 21 205 26 191 13 274 27 322 51 63 33 131 49 232 55 135 8 194 21 284 61
62 27 102 37 197 48 153 18 164 21 230 61 48 29 69 35 165 45 104 11 174 32
190 59 11 18 75 40 149 51 72 11 95 21 154 64 20 14 60 28 105 35 82 14 133
33 162 60 28 26 80 46 143 55 41 5 63 15 97 45 30 26 58 40 87 45 76 12 121
40 219 136 86 84 98 99 107 144 22 105 24 162 13 343 -18 278 -29 368 -55 446
-42 124 -47 155 -62 350 -8 105 -18 223 -23 261 -5 39 -7 74 -4 79 3 4 22 15
42 23 36 15 36 15 61 -17 14 -19 44 -54 67 -80 24 -26 54 -71 67 -101 13 -30
38 -67 56 -84 17 -16 42 -51 55 -76 13 -25 35 -53 49 -62 18 -12 32 -37 46
-85 16 -51 31 -78 58 -104 25 -24 43 -54 55 -91 10 -31 33 -74 52 -97 21 -25
42 -68 55 -108 10 -37 34 -87 52 -111 22 -31 37 -67 49 -127 13 -59 28 -97 53
-134 22 -31 39 -72 45 -108 26 -136 33 -159 61 -200 30 -45 50 -117 50 -181 0
-68 19 -143 55 -216 34 -69 36 -79 50 -256 13 -166 35 -296 64 -372 25 -65 33
-178 43 -627 14 -578 14 -651 5 -1005 -11 -402 -26 -527 -82 -685 -9 -25 -20
-106 -26 -180 -13 -180 -22 -227 -60 -313 -25 -55 -35 -99 -45 -187 -18 -158
-20 -165 -60 -246 -25 -51 -37 -92 -41 -136 -6 -66 -32 -123 -61 -132 -51 -15
-144 -17 -767 -19 l-680 -2 -75 -28 c-181 -67 -177 -65 -211 -125 -18 -30 -45
-69 -60 -87 -42 -48 -49 -75 -49 -201 0 -95 3 -122 20 -154 11 -21 25 -42 31
-45 6 -4 30 -37 54 -74 39 -62 49 -70 106 -94 35 -15 109 -38 164 -52 l100
-26 480 2 c510 2 550 -1 581 -45 20 -29 18 -46 -11 -88 -14 -20 -35 -77 -48
-126 -15 -59 -36 -108 -59 -144 -22 -32 -45 -85 -58 -132 -14 -52 -31 -91 -50
-113 -16 -18 -34 -52 -40 -75 -21 -85 -36 -113 -65 -128 -25 -12 -108 -16
-485 -20 -489 -5 -481 -5 -519 -59 -12 -16 -36 -39 -54 -50 -18 -11 -43 -38
-55 -59 -12 -22 -33 -47 -46 -56 -14 -9 -30 -33 -35 -53 -14 -48 -14 -247 -1
-292 11 -38 52 -89 163 -200 l77 -78 128 -6 c70 -4 168 -7 218 -7 82 0 93 -2
112 -23 21 -22 21 -26 9 -68 -8 -24 -30 -66 -49 -91 -20 -26 -39 -60 -43 -76
-3 -17 -22 -48 -41 -70 -18 -22 -44 -66 -56 -97 -14 -38 -33 -65 -56 -83 -19
-14 -43 -46 -54 -71 -10 -24 -32 -61 -48 -82 -17 -20 -41 -61 -54 -91 -13 -29
-36 -64 -51 -78 -15 -14 -37 -46 -50 -71 -13 -25 -40 -65 -61 -90 -20 -24 -45
-63 -56 -86 -10 -23 -32 -52 -49 -63 -16 -12 -41 -44 -54 -71 -14 -27 -35 -55
-46 -62 -11 -6 -34 -38 -50 -70 -16 -32 -45 -74 -63 -95 -18 -20 -43 -55 -54
-77 -11 -23 -32 -47 -47 -55 -15 -8 -41 -39 -57 -68 -17 -29 -38 -57 -48 -62
-10 -5 -37 -43 -59 -85 -23 -41 -46 -75 -51 -75 -6 0 -24 -21 -41 -48 -16 -26
-47 -65 -69 -87 -111 -112 -138 -142 -147 -159 -10 -19 -168 -190 -254 -275
-25 -25 -50 -54 -56 -64 -31 -59 -591 -626 -665 -675 -24 -15 -86 -69 -138
-119 -52 -50 -121 -116 -153 -145 -32 -29 -82 -77 -111 -105 -30 -29 -58 -53
-63 -53 -5 0 -32 -21 -61 -48 -94 -86 -146 -129 -202 -164 -30 -19 -64 -45
-75 -58 -11 -12 -37 -31 -57 -41 -20 -10 -49 -35 -64 -55 -15 -19 -44 -44 -65
-54 -20 -11 -47 -33 -59 -50 -12 -17 -40 -40 -63 -52 -23 -11 -59 -36 -79 -54
-21 -18 -59 -44 -86 -58 -27 -14 -56 -36 -66 -50 -9 -14 -39 -37 -66 -51 -27
-14 -57 -37 -66 -51 -10 -14 -47 -40 -83 -59 -36 -18 -75 -43 -86 -55 -11 -12
-44 -33 -73 -46 -29 -12 -65 -36 -80 -53 -17 -18 -51 -37 -92 -50 -41 -14 -78
-34 -100 -56 -19 -18 -62 -44 -95 -56 -33 -12 -76 -36 -95 -55 -19 -18 -57
-42 -85 -54 -27 -12 -61 -32 -75 -45 -14 -13 -55 -37 -92 -54 -37 -16 -77 -41
-89 -55 -12 -14 -51 -37 -88 -51 -36 -15 -79 -39 -96 -55 -38 -35 -57 -44
-123 -60 -34 -8 -69 -26 -99 -50 -29 -25 -65 -43 -97 -51 -62 -14 -82 -24
-123 -60 -20 -18 -52 -31 -90 -39 -76 -14 -90 -21 -140 -62 -31 -26 -55 -37
-94 -42 -61 -8 -110 -27 -161 -63 -21 -14 -77 -36 -124 -50 -51 -14 -106 -37
-131 -55 -29 -21 -65 -35 -115 -45 -40 -7 -90 -22 -110 -33 -21 -11 -55 -29
-77 -40 -21 -11 -67 -25 -102 -30 -95 -15 -100 -16 -158 -54 -52 -34 -83 -43
-219 -65 -41 -6 -82 -22 -120 -45 -48 -30 -74 -38 -167 -51 -88 -13 -126 -24
-190 -55 -68 -33 -98 -42 -195 -53 -90 -11 -128 -21 -175 -45 -72 -36 -132
-49 -293 -62 -70 -6 -144 -18 -175 -29 -28 -10 -78 -28 -110 -40 -44 -16 -106
-25 -245 -36 -184 -14 -232 -23 -342 -63 -65 -24 -203 -42 -318 -42 -104 0
-310 -24 -422 -50 -136 -31 -243 -39 -630 -51 -421 -13 -1945 -5 -2110 11 -58
6 -179 21 -270 35 -253 38 -310 44 -511 55 -198 10 -300 27 -418 66 -59 20
-112 28 -270 39 -196 14 -218 18 -371 74 -30 11 -89 22 -130 26 -205 17 -265
27 -320 55 -57 29 -100 40 -258 65 -65 11 -109 24 -147 46 -41 23 -84 36 -168
50 -85 14 -133 28 -199 60 -66 31 -107 43 -165 50 -61 7 -98 18 -168 53 -65
32 -108 47 -155 52 -78 8 -133 26 -183 61 -23 16 -71 33 -123 44 -57 13 -98
28 -127 48 -23 17 -77 39 -121 51 -90 24 -83 21 -151 66 -33 22 -75 38 -124
48 -56 12 -83 23 -105 45 -40 37 -59 46 -128 60 -36 8 -72 24 -100 46 -24 19
-74 42 -113 54 -48 14 -80 30 -100 51 -17 18 -54 38 -93 51 -42 14 -81 36
-108 61 -26 24 -62 44 -95 54 -32 9 -68 29 -89 49 -19 18 -61 45 -92 59 -32
13 -75 38 -95 54 -21 16 -59 37 -84 47 -26 9 -62 32 -79 50 -18 19 -58 44 -89
56 -31 12 -72 37 -91 54 -19 18 -57 44 -85 58 -27 14 -59 35 -70 47 -11 12
-50 37 -86 56 -37 18 -69 40 -72 48 -4 9 -31 32 -62 51 -30 20 -61 45 -68 56
-6 11 -28 30 -47 41 -19 12 -53 38 -75 58 -22 20 -66 52 -97 70 -32 19 -58 38
-58 42 0 4 -29 28 -65 53 -36 26 -65 51 -65 56 0 15 -230 238 -264 257 -46 25
-305 23 -358 -2 -33 -16 -88 -71 -187 -184 -55 -64 -56 -68 -56 -217 1 -146
14 -208 49 -221 9 -3 29 -27 45 -52 16 -26 57 -74 91 -107 34 -33 88 -86 120
-117 32 -32 63 -58 69 -58 6 0 22 -17 36 -38 14 -21 43 -49 65 -61 23 -12 48
-34 57 -48 9 -13 40 -40 70 -59 29 -18 53 -38 53 -43 0 -6 30 -31 68 -56 103
-69 150 -106 203 -157 27 -26 68 -56 92 -66 23 -11 51 -29 62 -41 11 -12 52
-37 91 -56 40 -18 77 -42 83 -54 7 -12 37 -34 69 -50 31 -16 71 -41 87 -55 17
-14 55 -35 85 -47 34 -12 69 -35 90 -58 25 -28 51 -43 93 -55 35 -10 71 -29
90 -48 45 -43 65 -54 125 -68 35 -8 65 -23 88 -46 20 -18 57 -40 82 -48 26 -9
73 -34 106 -56 32 -22 75 -44 96 -50 21 -6 64 -28 96 -50 33 -22 87 -49 121
-61 34 -11 67 -27 74 -35 15 -19 90 -57 144 -74 22 -7 54 -23 70 -35 50 -37
87 -52 155 -65 67 -13 92 -24 147 -64 19 -14 60 -29 97 -35 83 -15 132 -32
180 -65 41 -27 80 -40 158 -51 29 -4 66 -19 95 -39 55 -37 91 -50 183 -66 45
-8 81 -22 115 -45 37 -25 76 -39 150 -55 62 -14 123 -35 160 -55 68 -37 84
-41 212 -54 88 -9 113 -17 216 -72 25 -13 81 -25 164 -34 104 -13 140 -21 206
-51 61 -28 102 -39 166 -45 193 -19 254 -30 302 -55 74 -37 148 -52 321 -64
95 -6 188 -19 235 -32 43 -11 110 -29 148 -39 46 -12 135 -22 258 -29 217 -12
416 -33 514 -56 159 -37 292 -44 953 -55 806 -13 1104 -13 1750 0 515 11 568
15 700 56 88 27 213 41 475 55 208 11 219 13 350 58 79 27 112 32 270 42 216
13 265 22 358 65 65 31 88 35 234 49 151 14 166 17 230 50 59 31 86 38 198 51
155 19 158 19 215 55 46 29 95 40 250 59 64 8 101 19 153 46 50 26 95 40 177
54 89 15 119 24 153 48 49 35 85 48 182 64 74 12 113 28 134 53 15 17 47 28
153 51 54 11 93 27 129 51 42 29 142 63 191 64 3 0 27 16 53 35 33 26 68 41
126 54 53 13 98 31 132 54 56 38 96 52 170 63 33 4 56 15 75 33 41 41 73 58
122 66 57 9 77 20 117 61 24 24 45 34 80 40 60 8 111 31 124 55 13 26 55 46
114 54 38 6 59 17 94 50 33 30 62 46 101 56 38 10 69 27 101 55 26 23 69 48
99 58 30 10 71 33 93 51 22 19 60 41 85 50 26 8 64 29 85 46 20 17 62 41 92
54 30 14 67 39 82 56 15 17 57 44 93 60 36 17 76 41 90 53 14 13 49 36 78 50
28 15 58 36 65 47 6 11 44 37 82 56 39 20 87 51 108 69 20 19 44 34 52 34 9 0
38 21 65 46 28 26 74 58 103 71 28 13 66 37 82 53 17 16 47 36 67 44 20 9 49
32 64 52 15 19 43 44 63 54 20 10 45 28 56 40 11 13 45 39 75 58 30 19 77 55
104 79 26 23 54 43 61 43 8 0 26 15 42 34 15 18 42 41 58 51 17 10 53 41 81
69 28 28 79 74 113 101 35 28 86 70 114 95 29 25 70 56 92 70 22 13 59 42 82
64 23 23 68 65 100 94 115 104 188 172 208 193 11 12 29 30 40 41 96 90 205
200 205 206 0 4 16 18 35 31 19 13 44 38 55 56 11 17 31 37 44 43 14 6 39 30
56 53 17 23 45 52 63 64 18 13 39 35 47 50 8 15 30 38 49 51 18 12 41 34 51
49 9 14 59 72 111 127 187 202 226 248 319 378 19 27 47 58 62 70 15 11 37 38
49 59 12 22 32 45 45 52 13 6 35 30 50 53 15 23 42 54 61 69 18 16 41 43 49
60 9 18 31 48 49 67 18 19 45 61 60 92 15 31 37 64 50 72 12 8 36 40 54 70 17
30 40 60 52 66 11 6 33 39 48 73 16 34 38 71 51 82 12 11 38 47 57 80 19 33
44 66 54 73 11 7 31 37 45 65 15 29 42 71 60 94 19 23 43 61 53 86 11 24 32
54 49 65 16 12 41 47 56 78 15 31 40 72 56 93 16 20 36 53 45 74 9 22 34 56
55 77 27 27 44 55 56 96 10 37 28 69 51 91 19 19 45 59 58 89 13 29 37 71 53
91 16 21 37 58 46 83 10 24 34 63 55 85 26 28 41 57 50 98 11 43 25 68 58 103
23 25 43 52 43 59 0 30 41 105 66 122 26 17 80 18 914 23 991 6 933 2 1014 79
23 22 56 52 73 68 27 23 38 47 63 134 33 117 37 173 16 240 -7 24 -22 72 -31
107 -17 57 -25 68 -97 132 -119 106 -73 100 -813 100 -631 0 -632 0 -660 21
-24 20 -26 26 -20 68 18 132 28 163 66 207 42 48 45 56 54 134 3 31 16 72 30
95 46 75 64 120 75 189 6 38 15 77 20 87 6 9 36 30 67 44 l58 27 660 -1 c363
0 701 4 750 8 119 11 286 71 318 113 12 16 41 51 63 76 53 60 67 109 67 247 0
131 -20 216 -58 241 -13 9 -37 35 -52 59 -32 52 -36 54 -173 102 l-105 37
-590 6 c-564 5 -592 6 -630 25 -60 30 -65 59 -26 144 33 71 42 116 60 276 7
63 18 110 39 156 36 78 48 138 62 326 11 141 20 187 58 293 27 74 39 213 58
685 13 323 14 446 5 635 -6 129 -13 359 -16 510 -7 338 -16 427 -60 605 -25
103 -38 187 -49 320 -10 129 -20 196 -35 238 -12 31 -30 81 -40 110 -11 29
-25 98 -30 152 -13 123 -24 162 -61 223 -22 36 -33 71 -45 153 -8 59 -15 109
-15 112 0 3 -16 24 -35 47 -34 41 -41 59 -64 172 -8 35 -27 78 -47 109 -30 42
-63 142 -64 192 0 4 -18 27 -40 51 -32 34 -42 56 -51 102 -13 69 -22 88 -59
129 -15 17 -37 60 -49 96 -14 41 -33 77 -52 95 -17 16 -44 58 -60 94 -17 36
-41 76 -54 90 -12 14 -33 46 -45 71 -11 26 -39 61 -61 78 -21 18 -39 37 -39
44 0 7 -18 35 -41 62 -22 27 -52 69 -66 94 -15 26 -46 66 -69 91 -101 107
-128 137 -151 171 -13 20 -35 42 -50 50 -14 8 -37 31 -50 52 -13 21 -37 46
-53 56 -16 10 -43 36 -60 59 -17 23 -35 42 -40 42 -6 0 -35 24 -65 53 -30 28
-75 72 -100 96 -26 25 -69 55 -97 68 -27 12 -70 41 -95 63 -25 22 -52 40 -60
40 -8 0 -35 20 -61 44 -30 27 -67 50 -102 61 -32 10 -72 34 -97 56 -43 40 -48
42 -147 59 -33 5 -74 19 -93 30 -49 29 -118 26 -232 -11 -143 -46 -149 -49
-171 -85 -12 -18 -37 -46 -56 -61 -62 -50 -75 -166 -55 -493 7 -111 14 -151
40 -226 43 -127 51 -173 61 -384 9 -182 17 -230 58 -341 29 -77 40 -157 48
-339 5 -140 10 -168 46 -295 32 -111 40 -156 39 -215 -1 -45 -6 -79 -13 -87
-7 -7 -50 -23 -96 -36 -50 -15 -94 -34 -110 -50 -28 -26 -93 -49 -194 -67 -38
-8 -70 -22 -100 -45 -39 -31 -56 -36 -153 -51 -107 -16 -143 -28 -195 -65 -28
-20 -94 -33 -245 -49 -72 -8 -117 -18 -160 -39 -80 -37 -135 -49 -285 -60
-120 -9 -155 -18 -303 -71 -43 -15 -108 -24 -260 -35 -193 -14 -247 -23 -327
-58 -88 -38 -235 -42 -1620 -42 -1537 0 -1575 1 -1935 66 -60 11 -214 27 -341
34 -181 11 -253 20 -330 39 -156 40 -263 55 -463 66 -229 13 -225 10 -225 132
0 87 11 121 58 186 15 19 27 53 30 85 17 139 29 188 55 229 38 60 49 97 62
202 6 50 19 107 29 126 10 19 28 54 40 78 13 24 26 74 31 117 11 98 26 152 53
195 31 48 43 89 57 195 9 72 20 106 51 166 33 62 42 94 53 175 13 100 24 133
71 211 19 32 28 65 35 133 6 65 19 115 44 176 54 129 50 178 -21 322 -37 75
-63 117 -79 124 -12 5 -39 29 -58 53 -32 38 -43 44 -99 53 -125 22 -157 23
-253 7 -101 -16 -149 -34 -158 -59 -4 -9 -37 -31 -74 -50 -37 -18 -76 -43 -87
-54 -10 -12 -54 -33 -98 -47 -43 -15 -91 -37 -106 -49 -36 -31 -64 -45 -121
-62 -27 -8 -65 -25 -85 -39 -60 -41 -90 -53 -164 -70 -48 -11 -85 -27 -115
-50 -26 -20 -70 -40 -108 -50 -66 -17 -107 -36 -149 -67 -14 -10 -75 -28 -136
-41 -94 -19 -118 -28 -148 -55 -20 -18 -38 -32 -40 -32 -2 0 -39 -7 -82 -16
-50 -10 -106 -31 -151 -55 -58 -32 -91 -43 -170 -54 -74 -11 -115 -23 -167
-50 -55 -29 -93 -40 -191 -55 -99 -15 -136 -25 -192 -55 -59 -31 -88 -39 -183
-50 -118 -15 -162 -26 -220 -56 -50 -26 -123 -39 -295 -50 l-150 -10 -22 25
c-17 20 -22 43 -27 113 -13 178 -25 251 -50 301 -23 45 -39 117 -49 217 -6 56
22 107 76 138 61 36 111 45 294 57 155 10 198 18 318 60 33 12 114 28 180 36
214 25 237 30 292 64 40 25 69 34 130 41 149 18 235 38 273 63 47 31 94 44
190 52 86 7 122 18 167 51 42 31 96 50 169 58 59 8 108 28 154 65 14 11 60 27
105 35 108 21 137 31 179 65 25 19 57 32 103 40 71 12 112 29 156 66 15 13 58
33 96 44 37 11 76 29 87 41 24 27 63 47 128 66 28 8 71 30 95 49 25 19 74 43
110 54 36 11 82 33 101 49 19 17 62 39 95 51 33 11 82 38 108 59 26 22 69 47
95 55 28 10 63 32 83 52 19 20 52 45 74 56 22 11 54 33 70 48 17 16 60 40 96
55 41 16 74 37 87 54 12 17 52 43 91 61 39 18 78 42 88 52 10 11 38 31 63 43
25 13 63 42 85 64 21 23 45 41 52 41 7 0 33 20 58 44 25 25 66 52 93 61 26 10
63 34 82 55 19 20 54 47 77 60 22 12 51 36 62 51 12 16 39 38 61 49 22 11 54
33 72 49 18 15 53 38 78 51 25 12 64 41 87 63 23 23 70 67 103 97 33 30 87 80
118 110 32 30 67 62 77 71 11 9 32 29 47 45 32 35 98 95 278 251 164 144 185
165 280 277 41 48 93 108 115 132 22 24 65 71 95 104 30 34 80 87 110 120 30
33 65 70 76 82 12 13 31 32 43 43 41 39 147 154 196 215 28 34 70 83 95 110
51 53 110 128 156 198 18 26 48 63 67 82 19 19 43 50 52 68 8 18 30 45 46 60
17 15 37 39 45 54 7 14 32 48 55 74 22 26 51 70 63 98 13 28 37 61 55 74 17
12 39 39 50 60 11 20 34 51 51 67 18 17 43 55 57 85 13 30 37 69 52 85 16 17
38 49 50 72 11 23 34 51 51 63 17 12 42 45 57 73 14 29 37 66 51 82 14 17 35
53 48 80 12 28 36 64 54 80 18 17 47 62 64 100 18 39 41 76 50 84 10 8 29 38
43 65 14 28 40 67 58 86 21 22 40 57 51 95 12 42 27 69 50 91 20 18 44 57 59
93 13 34 38 78 55 98 17 19 42 60 56 91 14 32 35 68 48 82 13 14 35 55 51 92
15 37 37 75 47 85 26 24 42 57 57 118 8 34 24 63 51 90 29 30 43 56 55 104 12
47 27 77 56 109 21 25 39 50 39 57 0 37 36 121 66 155 26 28 40 57 50 102 10
43 24 73 44 93 33 34 55 82 65 143 4 23 23 65 42 93 19 28 45 85 57 128 12 42
38 100 58 129 26 36 42 76 53 130 11 50 27 89 44 112 15 19 34 46 41 60 19 35
27 305 10 354 -13 41 -167 204 -216 229 -61 31 -173 40 -347 28 -89 -6 -201
-11 -249 -11 -114 0 -300 -25 -372 -50 -74 -25 -165 -36 -406 -49 -107 -6
-231 -13 -275 -16 -72 -4 -245 -38 -335 -65 -19 -6 -90 -14 -157 -17 l-123 -6
-49 44 c-90 81 -106 95 -126 117 -62 67 -134 132 -165 147 -19 10 -52 33 -72
51 -20 18 -56 43 -80 55 -24 12 -59 38 -78 59 -25 27 -52 42 -93 54 -35 10
-73 30 -95 51 -21 19 -64 43 -95 55 -32 12 -71 33 -87 47 -17 14 -63 36 -102
49 -39 14 -97 42 -130 64 -38 25 -75 41 -106 45 -76 11 -119 24 -133 42 -25
29 -92 51 -204 67 -125 18 -148 24 -226 60 -47 22 -80 28 -195 36 -266 19
-400 32 -554 51 -85 11 -227 23 -315 26 -146 5 -167 4 -240 -17 -135 -38 -145
-40 -305 -51 -182 -12 -219 -19 -303 -58 -41 -20 -92 -34 -152 -41 -186 -24
-216 -29 -248 -46 -17 -9 -48 -25 -67 -35 -20 -11 -82 -25 -138 -33 -66 -9
-115 -22 -135 -35 -73 -46 -107 -60 -182 -74 -46 -9 -88 -24 -104 -36 -55 -44
-69 -51 -127 -62 -84 -15 -89 -17 -134 -54 -25 -21 -69 -43 -108 -55 -38 -11
-86 -35 -110 -54 -24 -19 -67 -42 -95 -50 -35 -10 -65 -28 -91 -55 -23 -24
-60 -48 -89 -58 -28 -10 -65 -32 -81 -49 -17 -17 -49 -41 -71 -52 -22 -11 -56
-37 -75 -57 -19 -20 -53 -46 -75 -57 -22 -11 -55 -34 -73 -49 -18 -16 -52 -38
-75 -50 -23 -12 -61 -40 -85 -63 -23 -22 -67 -63 -97 -91 -31 -27 -80 -74
-109 -103 -53 -53 -53 -53 -122 -55 -54 -1 -76 2 -100 18 -107 67 -127 77
-186 86 -45 7 -78 20 -115 45 -33 23 -80 43 -130 55 -46 12 -95 32 -120 49
-50 36 -100 55 -171 65 -35 4 -69 18 -101 40 -53 37 -88 48 -201 65 -47 7 -94
21 -125 39 -65 37 -103 48 -209 66 -61 9 -101 22 -128 40 -56 37 -82 45 -188
61 -72 10 -110 22 -165 50 -59 31 -90 40 -199 56 -99 14 -142 25 -185 48 -82
43 -104 49 -204 60 -74 7 -105 16 -171 49 -76 38 -90 41 -236 56 -139 14 -162
19 -228 51 -52 25 -98 38 -153 45 -43 5 -116 13 -160 19 -52 6 -106 21 -148
40 -74 33 -124 45 -226 55 -88 8 -168 30 -220 60 -38 23 -78 31 -252 54 -44 6
-102 23 -151 45 -59 27 -107 40 -191 51 -94 13 -126 23 -190 55 -65 34 -93 42
-189 54 -95 11 -125 20 -183 50 -57 30 -92 40 -195 55 -100 15 -133 25 -164
46 -42 29 -126 55 -180 55 -69 1 -169 29 -215 60 -37 25 -65 34 -141 46 -103
15 -151 31 -173 58 -22 27 -46 36 -129 52 -55 10 -91 24 -127 49 -32 21 -81
41 -134 55 -88 22 -117 35 -163 72 -20 16 -58 26 -150 39 -141 21 -200 22
-281 4z m738 -1129 c20 -14 62 -30 93 -36 101 -20 128 -30 167 -56 50 -33 73
-42 165 -61 41 -8 110 -30 152 -49 52 -24 116 -41 194 -55 72 -12 143 -31 187
-50 45 -20 117 -39 203 -54 89 -15 155 -33 201 -54 48 -22 107 -37 198 -51 94
-15 149 -30 205 -55 60 -27 102 -38 200 -50 69 -9 166 -27 215 -41 135 -39
203 -53 351 -69 105 -12 153 -22 221 -49 61 -24 131 -41 226 -55 95 -14 159
-30 205 -50 68 -29 131 -45 232 -56 68 -8 147 -30 222 -61 32 -13 117 -33 190
-45 73 -12 156 -30 183 -41 107 -43 132 -50 239 -64 86 -12 130 -24 196 -54
57 -25 118 -44 184 -55 54 -9 117 -25 140 -36 68 -34 116 -49 221 -69 60 -12
123 -32 157 -50 32 -16 99 -41 150 -55 51 -15 110 -38 130 -52 21 -14 77 -36
125 -50 48 -13 106 -37 129 -53 23 -16 74 -38 114 -49 93 -26 122 -44 116 -74
-3 -12 -7 -37 -10 -56 -3 -18 -19 -48 -35 -67 -17 -18 -39 -54 -50 -80 -12
-25 -34 -61 -50 -79 -15 -18 -40 -64 -55 -103 -15 -39 -34 -76 -42 -83 -20
-16 -47 -70 -69 -137 -9 -30 -30 -68 -46 -86 -17 -20 -40 -70 -58 -123 -16
-50 -41 -112 -56 -137 -15 -26 -38 -88 -51 -138 -12 -50 -32 -104 -44 -120
-29 -40 -36 -61 -60 -193 -11 -64 -29 -133 -39 -153 -30 -59 -49 -136 -66
-261 -9 -64 -32 -172 -50 -241 -33 -119 -46 -212 -61 -415 -11 -162 -52 -376
-79 -417 -43 -65 -60 -71 -135 -47 -36 11 -121 29 -190 39 -131 20 -175 32
-226 62 -17 10 -83 31 -147 47 -80 21 -128 39 -157 60 -26 19 -69 36 -114 46
-48 11 -89 28 -121 50 -26 19 -76 44 -111 55 -34 12 -79 34 -99 50 -20 16 -67
41 -106 55 -38 15 -87 41 -107 58 -21 18 -62 41 -91 52 -29 11 -69 34 -90 51
-20 17 -56 40 -82 51 -25 11 -61 34 -80 50 -18 17 -59 45 -89 63 -30 18 -61
41 -68 51 -7 11 -34 30 -60 43 -26 13 -58 36 -72 51 -14 15 -52 42 -86 61 -33
18 -71 45 -85 60 -13 14 -40 34 -60 45 -20 10 -49 33 -64 51 -15 18 -37 38
-49 45 -28 15 -184 165 -477 458 -257 257 -306 308 -384 405 -27 34 -70 83
-95 109 -25 26 -70 78 -100 116 -30 37 -74 88 -96 114 -23 25 -55 67 -72 94
-28 45 -45 66 -148 185 -23 26 -49 61 -58 79 -8 17 -34 52 -56 78 -22 26 -48
61 -56 78 -9 18 -34 51 -55 74 -21 22 -47 59 -58 82 -12 22 -30 45 -41 51 -11
6 -34 39 -51 73 -18 34 -45 78 -62 96 -16 19 -40 58 -52 85 -13 28 -33 60 -45
71 -13 11 -36 48 -51 82 -16 34 -42 77 -58 95 -15 18 -39 53 -51 78 -12 25
-36 61 -53 80 -16 19 -41 57 -53 85 -13 28 -36 62 -50 76 -15 13 -40 53 -55
88 -16 35 -41 77 -56 95 -14 17 -39 60 -55 95 -15 35 -39 76 -52 92 -13 15
-36 59 -50 97 -15 38 -40 81 -56 97 -26 25 -28 32 -24 79 9 88 12 90 69 52z
m10655 -477 c119 -8 171 -16 225 -36 93 -33 155 -49 244 -63 47 -8 98 -25 140
-47 36 -19 99 -43 139 -53 52 -13 83 -28 110 -52 21 -19 64 -44 97 -57 33 -13
74 -37 90 -52 17 -15 53 -38 80 -50 28 -12 67 -37 88 -54 21 -18 64 -46 95
-63 31 -17 63 -40 70 -51 6 -12 30 -32 52 -46 22 -14 127 -113 233 -219 l193
-194 110 -24 c75 -16 120 -21 144 -16 47 10 216 25 435 38 180 11 359 32 425
50 51 14 263 38 435 49 135 10 151 9 168 -7 10 -9 23 -24 28 -33 13 -25 -14
-103 -49 -143 -16 -19 -39 -60 -51 -90 -11 -31 -36 -79 -55 -106 -19 -27 -42
-72 -51 -99 -9 -27 -29 -66 -45 -86 -16 -20 -41 -68 -56 -107 -14 -39 -40 -85
-56 -104 -16 -18 -40 -61 -54 -95 -13 -35 -35 -74 -49 -89 -13 -14 -38 -57
-55 -95 -18 -39 -42 -81 -55 -95 -13 -14 -33 -46 -45 -72 -11 -26 -37 -69 -57
-95 -20 -26 -46 -70 -58 -98 -13 -28 -34 -64 -48 -81 -13 -16 -39 -58 -57 -94
-18 -36 -46 -80 -61 -98 -16 -18 -36 -49 -44 -69 -8 -19 -28 -51 -45 -70 -17
-18 -42 -57 -56 -86 -15 -29 -42 -69 -60 -89 -18 -21 -40 -54 -49 -74 -8 -20
-31 -54 -50 -75 -19 -21 -48 -64 -64 -96 -16 -32 -38 -63 -49 -70 -10 -6 -33
-37 -51 -68 -17 -31 -39 -59 -47 -62 -8 -3 -29 -29 -45 -58 -16 -29 -47 -73
-68 -97 -21 -23 -46 -58 -55 -76 -9 -18 -31 -45 -47 -60 -17 -15 -39 -43 -49
-62 -10 -19 -33 -48 -50 -65 -18 -16 -47 -54 -66 -82 -19 -29 -38 -53 -43 -53
-5 0 -24 -24 -42 -52 -18 -29 -52 -74 -76 -100 -24 -26 -43 -52 -43 -58 0 -12
-76 -100 -244 -285 -112 -123 -154 -171 -187 -215 -79 -102 -207 -233 -404
-414 -72 -65 -155 -141 -186 -170 -31 -28 -84 -76 -118 -106 -35 -30 -86 -76
-114 -102 -166 -149 -255 -226 -349 -306 -106 -89 -167 -136 -219 -168 -27
-18 -59 -44 -70 -58 -12 -15 -37 -35 -57 -45 -21 -11 -50 -33 -67 -51 -16 -18
-46 -40 -67 -51 -20 -10 -57 -37 -83 -59 -26 -22 -63 -49 -83 -59 -21 -11 -50
-34 -67 -51 -16 -18 -52 -42 -80 -54 -27 -13 -57 -31 -65 -41 -8 -9 -46 -33
-85 -52 -38 -18 -83 -47 -100 -63 -16 -16 -51 -38 -76 -48 -25 -11 -62 -34
-81 -51 -20 -17 -58 -41 -84 -52 -27 -12 -65 -36 -84 -54 -21 -19 -62 -41
-100 -54 -36 -12 -85 -37 -109 -56 -24 -19 -48 -35 -52 -35 -24 0 -122 -45
-154 -70 -20 -16 -66 -39 -103 -51 -37 -12 -84 -36 -104 -54 -24 -20 -66 -40
-111 -53 -40 -12 -93 -35 -118 -51 -28 -19 -79 -38 -133 -51 -50 -11 -115 -35
-150 -55 -36 -20 -100 -43 -154 -56 -52 -12 -108 -32 -129 -46 -51 -35 -73
-42 -197 -64 -64 -12 -134 -32 -170 -49 -45 -21 -98 -34 -201 -50 -102 -15
-156 -28 -202 -49 -73 -35 -130 -47 -278 -61 -138 -13 -256 -35 -365 -66 -59
-17 -131 -28 -235 -36 l-149 -10 -27 30 c-21 24 -27 43 -33 103 -4 41 -20 151
-36 245 -33 192 -46 341 -55 619 -4 105 -13 278 -21 385 -8 107 -19 285 -24
395 -5 110 -12 227 -15 260 -10 93 -6 755 5 900 5 72 14 177 20 235 5 58 16
220 25 360 18 314 22 352 46 465 41 191 58 284 74 400 11 78 26 145 46 193 16
41 38 126 50 190 15 86 30 136 56 187 19 38 46 111 58 162 13 51 37 116 54
146 17 30 40 83 51 119 11 36 33 82 50 102 25 33 70 131 70 155 0 5 14 26 31
47 17 22 39 57 49 80 10 23 32 57 49 76 16 19 48 66 69 104 l39 69 56 9 c66
11 98 0 161 -52 22 -19 57 -42 76 -51 19 -8 59 -36 87 -61 29 -25 78 -66 110
-93 189 -155 407 -367 436 -423 9 -17 27 -38 40 -47 13 -8 34 -37 47 -64 12
-26 37 -64 54 -83 18 -20 43 -65 56 -100 13 -36 36 -83 52 -105 49 -70 98
-364 98 -590 0 -124 5 -177 19 -235 31 -120 59 -186 88 -205 14 -10 42 -35 62
-55 29 -31 56 -45 145 -74 60 -20 114 -36 120 -36 6 0 63 14 125 32 109 31
118 35 176 89 34 32 80 90 104 129 37 63 43 83 53 163 6 53 8 187 5 317 -6
238 -18 324 -70 500 -14 47 -31 110 -37 140 -12 53 -21 74 -66 156 -12 22 -29
68 -38 104 -11 42 -27 75 -46 95 -15 16 -39 55 -53 86 -13 30 -38 71 -55 90
-16 19 -42 60 -57 92 -15 32 -36 62 -46 68 -11 5 -31 29 -45 52 -15 23 -41 58
-59 77 -19 19 -62 66 -97 103 -124 133 -273 281 -305 303 -32 21 -74 59 -166
150 -23 23 -58 49 -77 59 -19 9 -48 30 -65 46 -16 15 -55 39 -86 53 -31 15
-63 34 -72 44 -18 20 -22 9 45 110 16 23 45 50 65 61 21 10 52 34 68 51 17 18
51 43 77 56 26 13 62 37 80 53 18 15 58 41 88 56 30 15 69 40 85 55 17 16 57
39 90 51 33 12 77 36 97 54 20 17 63 39 95 49 32 10 81 33 108 52 28 19 84 44
125 55 41 12 103 37 136 55 38 21 96 42 152 54 50 10 120 33 154 49 70 34 106
42 288 66 68 10 163 30 210 45 75 25 178 42 335 54 93 7 769 -3 925 -15z
m-17430 -9525 c58 -8 137 -23 175 -34 84 -23 238 -46 360 -55 103 -8 218 -29
268 -50 50 -21 186 -43 337 -56 137 -11 183 -18 390 -63 63 -14 198 -32 300
-40 190 -16 284 -30 450 -65 52 -11 169 -27 260 -36 203 -20 264 -30 360 -60
85 -26 194 -40 425 -55 178 -12 250 -21 375 -50 85 -19 302 -43 500 -55 161
-10 266 -24 370 -50 108 -28 196 -40 395 -55 140 -11 242 -25 430 -60 121 -22
280 -36 565 -50 212 -11 484 -37 670 -65 52 -8 169 -19 260 -25 359 -24 570
-42 739 -65 186 -25 421 -37 1066 -55 347 -9 631 -28 744 -50 90 -17 599 -12
911 9 157 11 353 22 435 25 83 4 267 11 410 16 399 16 553 31 850 84 44 8 124
18 178 22 l98 7 29 -28 c26 -25 30 -36 30 -83 0 -85 29 -248 55 -305 26 -60
40 -124 55 -257 11 -103 28 -171 61 -247 12 -28 29 -109 40 -191 13 -96 27
-164 45 -205 37 -89 41 -106 64 -267 16 -110 28 -160 51 -208 22 -47 35 -101
51 -200 11 -76 29 -159 40 -187 42 -106 49 -129 68 -253 14 -83 31 -150 50
-192 36 -81 37 -84 59 -219 13 -73 30 -134 51 -178 20 -44 38 -106 50 -175 11
-64 30 -134 49 -175 34 -75 44 -113 61 -223 7 -41 27 -109 46 -152 26 -58 39
-109 55 -215 12 -77 36 -182 54 -239 26 -77 38 -142 55 -285 11 -101 32 -225
46 -276 30 -111 50 -257 59 -418 9 -182 23 -307 50 -450 31 -165 44 -351 55
-795 24 -921 3 -2008 -45 -2318 -8 -53 -22 -140 -30 -192 -8 -52 -21 -187 -30
-300 -18 -237 -26 -291 -61 -390 -16 -48 -31 -127 -44 -240 -15 -136 -25 -184
-50 -246 -17 -42 -38 -120 -46 -173 -30 -179 -35 -200 -68 -263 -20 -37 -42
-103 -54 -160 -13 -62 -33 -121 -55 -160 -19 -35 -42 -96 -52 -135 -11 -47
-28 -86 -47 -110 -16 -20 -39 -70 -51 -110 -12 -42 -34 -89 -51 -110 -16 -19
-42 -63 -58 -96 -16 -33 -42 -75 -58 -94 -17 -18 -38 -50 -49 -71 -10 -20 -31
-48 -46 -62 -15 -14 -33 -36 -40 -50 -27 -52 -174 -212 -226 -247 -30 -20 -67
-48 -84 -64 -16 -15 -54 -37 -84 -48 -30 -11 -63 -29 -75 -40 -49 -46 -97 -55
-338 -59 -262 -4 -328 3 -435 51 -43 19 -111 43 -152 52 -50 12 -84 27 -107
47 -18 16 -61 40 -96 54 -34 15 -78 39 -96 55 -18 16 -54 40 -80 53 -26 13
-56 34 -67 46 -11 12 -45 39 -75 60 -86 59 -292 267 -329 333 -18 31 -41 62
-52 67 -10 6 -30 32 -43 58 -13 26 -36 58 -51 72 -15 14 -37 46 -50 71 -13 25
-39 64 -58 87 -20 23 -43 63 -53 89 -9 27 -31 66 -47 87 -17 22 -45 78 -62
126 -17 48 -41 100 -52 116 -23 33 -35 65 -58 149 -9 33 -32 92 -51 130 -18
39 -41 106 -50 150 -9 44 -31 114 -49 155 -25 56 -39 110 -55 210 -12 80 -35
176 -55 237 -28 80 -39 132 -50 250 -24 237 -36 323 -50 363 -16 45 -30 143
-46 319 -10 107 -10 146 0 195 15 74 18 78 95 123 34 19 78 50 99 69 20 19 41
34 47 34 5 0 35 23 65 50 30 28 60 50 66 50 5 0 31 20 57 44 26 24 67 56 92
71 25 15 66 47 92 71 26 24 51 44 56 44 5 0 79 69 164 153 86 83 164 160 174
170 11 10 46 47 79 83 33 36 81 87 106 112 26 26 54 61 62 78 9 17 32 51 53
75 20 24 48 67 61 96 14 29 35 59 47 67 13 8 35 41 50 73 15 32 38 69 51 83
12 14 37 54 55 90 18 36 45 79 60 97 15 17 38 62 50 100 12 37 35 88 50 113
16 25 39 83 53 130 13 47 39 112 56 145 21 40 37 95 50 165 10 58 30 138 45
179 14 42 39 159 57 275 17 110 40 224 50 251 27 69 46 196 64 425 9 107 20
233 25 280 27 253 22 412 -25 775 -23 178 -29 208 -59 270 -19 39 -44 100 -55
136 -12 37 -33 77 -47 90 -14 13 -35 42 -46 64 -26 50 -131 160 -178 185 -19
10 -48 32 -63 49 -16 17 -33 31 -39 31 -5 0 -57 22 -116 49 -100 46 -115 50
-234 61 -182 18 -336 2 -433 -45 -38 -18 -101 -43 -140 -54 -38 -12 -90 -35
-114 -51 -25 -17 -67 -38 -94 -48 -27 -9 -68 -33 -91 -53 -22 -20 -66 -49 -96
-64 -30 -15 -66 -40 -78 -56 -13 -16 -38 -37 -54 -45 -26 -14 -108 -94 -321
-315 -19 -19 -47 -55 -62 -80 -16 -24 -43 -61 -61 -83 -18 -21 -41 -61 -51
-88 -10 -27 -32 -67 -50 -88 -22 -25 -39 -63 -54 -116 -12 -44 -37 -108 -55
-144 -21 -40 -40 -98 -50 -150 -9 -47 -32 -123 -51 -169 -24 -60 -39 -117 -49
-195 -14 -104 -39 -217 -83 -381 -10 -38 -24 -128 -31 -200 -6 -71 -26 -206
-45 -300 -46 -234 -44 -214 -60 -480 -8 -131 -24 -311 -35 -399 -37 -304 -42
-392 -49 -848 l-6 -456 -24 -26 c-13 -14 -47 -32 -75 -40 -28 -8 -67 -27 -86
-41 -19 -14 -73 -37 -120 -52 -47 -14 -119 -41 -160 -60 -41 -19 -109 -42
-150 -50 -44 -9 -102 -30 -139 -50 -50 -28 -89 -40 -179 -55 -64 -10 -145 -32
-181 -47 -82 -34 -86 -35 -249 -60 -73 -12 -165 -32 -205 -46 -98 -34 -157
-44 -326 -56 -79 -5 -176 -17 -215 -25 -78 -17 -249 -38 -456 -55 -165 -14
-1017 -6 -1170 10 -58 6 -161 22 -230 36 -70 13 -200 28 -295 34 -177 11 -275
27 -360 60 -28 10 -114 29 -193 40 -102 15 -167 31 -232 56 -50 20 -125 42
-168 50 -99 19 -139 33 -184 63 -21 13 -75 33 -120 44 -51 12 -108 33 -148 57
-36 21 -95 46 -133 56 -37 9 -87 30 -110 46 -23 16 -78 40 -122 54 -117 36
-125 44 -118 108 3 30 12 57 22 65 9 7 52 24 96 37 47 15 95 37 117 56 21 16
66 42 100 56 35 13 77 37 93 53 17 15 46 36 65 45 78 39 310 265 378 368 8 12
28 36 45 54 28 30 52 88 86 208 14 51 15 69 6 120 -35 182 -103 269 -270 350
-87 42 -110 49 -178 53 -76 5 -79 4 -130 -31 -29 -19 -72 -45 -97 -57 -28 -15
-93 -73 -177 -159 -72 -76 -149 -146 -170 -157 -21 -10 -57 -36 -79 -56 -28
-24 -65 -43 -111 -57 -37 -11 -84 -32 -103 -46 -51 -38 -116 -53 -253 -60
-150 -8 -336 7 -448 35 -77 20 -93 21 -182 11 -54 -6 -104 -11 -111 -11 -8 0
-30 22 -49 48 -19 27 -55 73 -81 103 -26 30 -72 85 -104 123 -31 37 -74 86
-96 109 -21 22 -45 55 -52 74 -8 18 -30 54 -50 80 -19 25 -46 68 -60 94 -13
27 -33 57 -44 67 -11 10 -34 47 -51 81 -16 35 -43 80 -59 100 -16 20 -39 63
-50 95 -11 33 -33 80 -49 105 -17 25 -43 78 -59 118 -16 39 -38 83 -50 98 -20
25 -37 72 -62 167 -7 26 -27 70 -45 98 -19 30 -38 76 -45 113 -16 84 -37 143
-66 186 -15 24 -32 79 -48 156 -15 74 -36 143 -55 180 -21 42 -37 96 -51 180
-12 65 -32 146 -45 180 -32 82 -40 117 -65 287 -11 81 -30 173 -40 204 -28 79
-47 196 -60 354 -6 74 -20 187 -30 250 -63 379 -64 389 -87 915 -24 559 -22
1347 6 1988 21 505 31 632 57 767 16 85 54 423 54 487 0 30 7 50 26 72 26 31
27 31 93 25 36 -3 113 -12 171 -20z m10725 -4874 c60 -62 69 -119 69 -455 -1
-310 -10 -404 -59 -620 -13 -60 -32 -171 -40 -245 -17 -141 -33 -225 -60 -299
-8 -24 -27 -107 -41 -185 -19 -106 -33 -154 -55 -194 -16 -29 -41 -97 -55
-150 -17 -68 -34 -109 -56 -135 -16 -21 -41 -65 -53 -98 -13 -33 -36 -74 -51
-92 -15 -18 -38 -56 -51 -86 -13 -30 -39 -72 -57 -95 -19 -23 -48 -64 -65 -93
-17 -28 -38 -54 -46 -57 -8 -3 -31 -30 -50 -60 -19 -31 -44 -60 -54 -66 -11
-5 -30 -27 -42 -47 -13 -21 -56 -69 -97 -108 -40 -38 -117 -114 -172 -168
-105 -104 -117 -109 -155 -67 -16 18 -18 41 -16 228 1 203 15 548 27 687 3 39
14 111 25 160 26 120 45 264 64 475 18 193 25 232 60 335 13 39 33 140 45 225
15 109 30 176 50 228 16 40 38 116 49 170 22 110 33 143 61 182 11 15 31 61
46 101 18 51 41 90 73 126 48 55 187 198 240 247 17 16 31 33 31 38 0 5 30 23
67 40 37 16 84 45 105 62 21 18 65 41 98 51 34 10 63 22 66 27 7 12 58 -20 99
-62z"/>
<path d="M30414 25619 c-39 -4 -91 -15 -115 -24 -24 -9 -63 -23 -86 -30 -60
-20 -78 -30 -158 -96 -77 -64 -99 -89 -139 -164 -15 -28 -37 -65 -50 -83 -14
-18 -27 -55 -31 -85 -11 -76 -8 -295 5 -352 13 -58 119 -226 163 -257 16 -11
53 -42 83 -68 35 -31 79 -57 127 -74 39 -15 90 -35 112 -43 22 -9 79 -18 126
-21 76 -4 92 -1 150 23 35 15 83 33 105 40 64 20 99 41 154 90 27 24 59 49 70
55 18 10 55 59 133 180 24 38 37 124 38 255 1 149 -15 235 -52 282 -17 20 -44
63 -61 96 -38 70 -172 186 -246 212 -26 10 -67 25 -92 35 -43 17 -143 41 -158
39 -4 -1 -39 -5 -78 -10z"/>
<path d="M14550 16044 c-112 -8 -195 -25 -263 -55 -38 -17 -92 -37 -119 -45
-27 -9 -66 -30 -86 -48 -20 -18 -57 -44 -82 -56 -25 -13 -73 -49 -108 -81 -34
-33 -66 -59 -70 -59 -4 0 -16 -15 -27 -32 -10 -18 -36 -53 -57 -77 -21 -24
-48 -71 -60 -104 -12 -34 -34 -75 -48 -92 -39 -44 -49 -83 -65 -240 -21 -200
-20 -903 0 -1079 20 -167 28 -200 59 -244 14 -20 35 -64 47 -97 12 -33 39 -78
60 -100 20 -22 45 -54 56 -71 20 -34 157 -164 173 -164 5 0 26 -18 47 -39 24
-25 60 -47 98 -61 33 -12 77 -36 99 -52 21 -17 58 -37 83 -44 127 -38 502 -44
649 -10 42 10 93 31 125 51 29 19 74 42 99 52 25 9 63 33 85 54 22 20 54 44
70 52 27 13 76 63 207 208 23 26 48 64 57 85 8 22 32 65 53 98 21 32 40 75 43
95 3 20 19 110 35 201 29 161 30 173 30 493 0 302 -2 341 -25 485 -40 248 -52
299 -79 335 -13 17 -39 63 -56 102 -28 63 -72 122 -147 198 -77 78 -121 116
-149 130 -17 9 -49 31 -72 51 -23 19 -63 42 -89 51 -27 9 -86 32 -132 52 -46
19 -109 38 -140 43 -73 11 -231 18 -301 14z"/>
<path d="M20845 15064 c-158 -43 -274 -90 -319 -129 -128 -110 -184 -172 -215
-235 -18 -36 -41 -82 -52 -102 -32 -59 -39 -141 -39 -483 0 -369 7 -429 54
-500 19 -27 43 -69 55 -92 11 -23 36 -57 54 -75 18 -18 50 -54 70 -79 23 -29
55 -54 89 -69 29 -13 76 -38 103 -57 39 -25 70 -36 145 -48 52 -8 120 -15 150
-15 94 0 226 26 272 54 24 14 67 37 97 51 35 17 78 51 120 96 131 137 151 164
175 235 13 38 34 90 47 114 24 44 24 50 27 356 l3 311 -35 91 c-20 50 -36 96
-36 102 0 35 -47 141 -78 177 -21 23 -48 56 -60 73 -13 17 -38 38 -55 46 -18
9 -48 31 -67 50 -45 43 -245 118 -354 133 -91 13 -87 13 -151 -5z"/>
<path d="M30570 12573 c-99 -15 -160 -37 -193 -68 -19 -18 -51 -41 -71 -50
-21 -10 -44 -32 -53 -49 -9 -17 -34 -47 -55 -67 -33 -30 -42 -48 -59 -115 -11
-43 -29 -94 -39 -111 -24 -41 -44 -189 -36 -261 4 -30 20 -85 36 -122 16 -37
33 -93 36 -124 7 -55 10 -60 86 -134 43 -42 99 -95 123 -117 25 -22 48 -43 53
-47 4 -4 50 -16 102 -27 52 -11 125 -29 161 -39 64 -18 66 -18 102 1 20 10 72
25 117 33 91 16 107 22 170 74 25 20 62 47 83 59 21 13 44 35 52 49 7 15 31
46 53 68 23 24 46 62 55 90 26 79 40 311 27 434 -15 141 -25 175 -64 218 -19
20 -45 60 -60 89 -21 42 -39 61 -95 96 -38 25 -72 50 -75 56 -12 19 -69 44
-131 57 -55 12 -265 17 -325 7z"/>
<path d="M35744 12541 c-23 -10 -45 -24 -49 -31 -4 -7 -34 -25 -67 -40 -77
-37 -187 -148 -213 -217 -10 -26 -33 -70 -51 -96 -18 -27 -36 -63 -40 -82 -3
-18 -4 -116 -2 -217 l3 -183 47 -85 c25 -47 49 -96 53 -110 11 -36 145 -165
203 -194 27 -14 63 -36 79 -50 45 -37 72 -45 191 -52 157 -9 243 5 312 54 30
21 69 44 87 51 17 7 49 32 71 54 22 23 51 50 66 60 14 10 36 37 47 60 12 23
34 57 50 74 45 52 53 99 53 313 1 235 -5 274 -49 339 -19 27 -41 66 -50 86
-17 42 -156 185 -179 185 -8 0 -38 16 -67 36 -91 61 -102 64 -286 64 -143 0
-174 -3 -209 -19z"/>
<path d="M33295 11254 c-16 -3 -66 -14 -109 -24 -50 -13 -114 -20 -170 -20
-103 0 -344 -26 -384 -41 -15 -6 -37 -20 -50 -32 -12 -12 -57 -40 -100 -62
-67 -35 -81 -47 -104 -90 -15 -27 -28 -56 -28 -63 0 -7 -14 -42 -30 -77 -40
-85 -46 -138 -25 -195 9 -25 33 -92 52 -150 25 -74 45 -115 68 -140 18 -19 40
-49 49 -67 9 -18 34 -46 56 -64 22 -18 42 -41 46 -51 3 -11 29 -34 57 -53 29
-18 63 -45 76 -59 15 -16 51 -34 91 -46 40 -12 76 -30 91 -46 31 -33 61 -48
126 -63 60 -15 74 -29 97 -95 20 -62 20 -162 0 -335 -15 -133 -27 -175 -59
-201 -9 -8 -30 -40 -46 -72 -42 -83 -156 -205 -239 -253 -37 -22 -80 -49 -95
-60 -33 -23 -104 -33 -245 -34 -143 -1 -215 12 -265 48 -22 16 -73 39 -112 51
-44 13 -86 34 -111 56 -50 43 -105 54 -258 54 l-114 0 -57 -51 c-90 -80 -174
-171 -189 -206 -19 -44 -19 -301 0 -346 22 -54 191 -215 260 -248 33 -16 72
-40 86 -53 14 -14 50 -32 80 -41 53 -16 91 -33 188 -85 l47 -25 372 -3 c410
-3 461 1 537 49 27 16 78 37 114 45 76 18 97 27 132 60 14 12 52 35 85 50 33
15 78 44 100 65 129 125 156 149 165 149 6 0 30 9 53 20 l43 20 57 -31 c32
-17 68 -44 80 -61 12 -16 40 -41 62 -54 23 -13 51 -37 64 -54 12 -17 43 -40
68 -51 26 -11 67 -35 92 -53 26 -19 83 -45 132 -60 48 -14 92 -33 99 -42 40
-47 52 -49 462 -52 235 -2 408 1 442 7 34 6 75 23 106 45 29 20 74 39 105 46
36 7 73 25 107 51 29 21 73 46 98 54 31 10 69 38 123 89 42 40 77 78 77 85 0
6 16 29 36 51 43 48 53 86 54 205 0 109 -13 160 -50 200 -15 17 -35 44 -44 62
-9 17 -30 42 -48 54 -18 12 -52 39 -74 60 -50 45 -104 55 -254 46 -100 -5
-140 -18 -174 -56 -11 -12 -55 -32 -98 -45 -43 -14 -95 -38 -116 -54 -56 -45
-132 -56 -318 -49 -148 6 -157 7 -207 36 -29 16 -77 43 -108 60 -35 18 -65 44
-78 65 -12 19 -37 45 -56 56 -21 13 -45 42 -61 73 -14 29 -34 61 -43 72 -39
43 -52 76 -66 164 -9 51 -22 109 -31 129 -9 20 -19 82 -23 137 -7 88 -5 107
13 160 20 58 24 61 88 95 36 19 76 47 87 61 14 18 38 31 73 39 67 16 97 31
128 65 14 15 52 40 85 55 36 17 80 49 109 79 27 28 53 51 57 51 4 0 23 26 43
58 19 32 45 67 57 78 36 32 57 87 75 190 15 85 15 113 5 195 -6 52 -16 112
-22 134 -14 49 -101 142 -155 165 -23 10 -57 32 -76 49 -50 44 -123 59 -363
76 -115 9 -239 22 -275 31 -49 12 -129 17 -330 19 -146 2 -278 1 -295 -1z"/>
</g>
</svg>
