<?xml version="1.0" standalone="no"?>
<!DOCTYPE svg PUBLIC "-//W3C//DTD SVG 20010904//EN"
 "http://www.w3.org/TR/2001/REC-SVG-20010904/DTD/svg10.dtd">
<svg version="1.0" xmlns="http://www.w3.org/2000/svg"
 width="2255.000000pt" height="1271.000000pt" viewBox="0 0 2255.000000 1271.000000"
 preserveAspectRatio="xMidYMid meet">

<g transform="translate(0.000000,1271.000000) scale(0.100000,-0.100000)"
fill="#000000" stroke="none">
<path d="M15702 8001 c-23 -17 -24 -22 -20 -117 3 -91 6 -105 41 -174 61 -120
163 -255 292 -386 137 -139 199 -187 323 -249 89 -45 152 -64 210 -65 l32 0 0
-97 c1 -54 5 -145 10 -203 4 -58 7 -108 4 -111 -2 -3 -36 0 -76 7 -40 7 -136
23 -213 35 -411 63 -720 192 -924 384 -67 64 -87 95 -58 95 6 0 45 -5 86 -10
65 -9 77 -8 93 7 18 16 19 28 13 143 -5 114 -5 123 9 100 8 -14 52 -59 98
-101 142 -129 271 -243 313 -275 62 -47 180 -113 240 -134 53 -18 54 -18 80 1
25 20 34 70 17 95 -4 6 -48 32 -98 58 -187 96 -319 207 -549 462 -187 207
-227 244 -259 244 -55 0 -74 -66 -52 -177 20 -99 37 -245 31 -252 -3 -3 -43 7
-88 22 -95 31 -143 34 -175 11 -88 -61 90 -328 338 -505 268 -192 674 -321
1057 -336 172 -7 163 -1 163 -102 l0 -53 -352 5 c-354 5 -427 11 -878 68 -95
12 -497 77 -520 84 -9 3 -51 9 -94 15 -71 9 -81 8 -106 -10 -97 -69 -120 -583
-41 -922 86 -366 247 -576 538 -698 109 -46 218 -69 357 -78 206 -12 340 3
495 56 84 28 91 25 91 -46 0 -53 43 -209 75 -271 89 -176 234 -280 391 -281
163 0 283 120 352 355 50 169 57 235 56 515 -1 326 -7 369 -114 780 -44 170
-80 315 -80 322 0 10 23 18 76 26 43 7 122 27 176 45 76 26 101 31 105 21 3
-7 -10 -65 -27 -127 -36 -128 -35 -176 3 -202 30 -19 351 -55 552 -62 240 -8
507 32 714 107 92 34 104 55 98 163 -5 103 2 107 50 21 39 -70 56 -125 77
-253 25 -146 17 -317 -24 -538 0 -2 -56 -3 -123 -3 -143 0 -157 -7 -157 -77 0
-61 20 -73 123 -73 48 0 87 -4 87 -9 0 -5 -9 -29 -19 -54 l-19 -44 -68 -7
c-75 -8 -104 -25 -104 -63 0 -37 18 -63 56 -79 l34 -14 -21 -43 c-61 -120
-159 -240 -299 -371 -340 -316 -683 -479 -1102 -525 -126 -14 -419 -14 -550 0
-108 11 -308 55 -418 91 -127 41 -321 143 -432 227 -58 45 -116 81 -127 81
-45 0 -75 -62 -55 -114 7 -19 135 -123 210 -171 275 -176 702 -285 1116 -285
209 0 502 54 718 132 425 154 778 416 971 723 42 66 79 132 82 146 4 15 27 49
51 75 l44 49 136 3 c132 3 137 4 152 28 18 27 13 64 -12 88 -12 13 -38 16
-118 16 l-103 0 16 60 16 60 131 0 c150 0 164 6 164 77 0 63 -19 73 -133 73
-111 0 -105 -7 -81 102 26 114 23 396 -4 513 -25 105 -51 183 -82 245 -84 169
-289 321 -346 259 -15 -17 -16 -34 -10 -141 3 -68 11 -143 16 -168 4 -25 5
-48 2 -52 -10 -10 -290 -74 -408 -93 -123 -20 -270 -21 -498 -4 -124 9 -176
16 -176 25 0 7 11 45 25 86 33 97 75 260 75 293 0 31 -35 64 -67 65 -12 0 -48
-13 -80 -29 -108 -54 -434 -163 -447 -150 -3 2 -8 28 -12 56 l-6 51 48 7 c160
21 333 76 472 150 319 170 587 468 816 908 48 93 56 115 56 163 0 54 -1 55
-37 71 -34 14 -50 14 -168 -1 -71 -9 -137 -16 -146 -16 -8 0 -57 27 -107 59
-120 76 -194 96 -352 95 -165 -2 -280 -40 -435 -144 -38 -26 -77 -49 -85 -52
-8 -3 -51 8 -95 24 -108 40 -173 59 -358 107 -227 59 -439 119 -538 152 -101
34 -97 34 -127 10z m299 -206 c79 -24 117 -33 299 -71 101 -21 198 -51 240
-73 19 -11 64 -27 100 -36 36 -9 68 -20 73 -24 4 -4 -6 -34 -23 -68 -16 -33
-34 -80 -39 -104 -18 -85 -63 -254 -71 -262 -14 -16 -229 60 -293 104 -95 64
-297 276 -297 312 0 7 -18 31 -40 52 -22 21 -40 44 -40 50 0 7 -9 20 -21 31
-30 27 -51 72 -44 94 9 28 52 26 156 -5z m1542 -66 c38 -21 72 -39 76 -39 4 0
16 -9 27 -21 39 -43 72 -52 201 -52 112 0 148 -8 107 -24 -8 -3 -13 -12 -10
-20 3 -8 -5 -29 -18 -46 -28 -37 -96 -167 -96 -183 0 -7 -9 -14 -20 -17 -13
-3 -20 -14 -20 -29 0 -25 -126 -189 -161 -211 -12 -6 -29 -29 -40 -49 -11 -21
-24 -38 -29 -38 -5 0 -31 -23 -57 -51 -26 -28 -68 -62 -93 -77 -25 -14 -49
-32 -53 -39 -12 -19 -95 -65 -106 -59 -5 3 -14 -1 -21 -9 -42 -51 -239 -126
-365 -139 -33 -4 -75 -9 -92 -12 -27 -4 -33 -2 -33 14 0 10 -5 23 -11 29 -8 8
-9 98 -6 299 3 230 8 301 21 349 23 84 38 119 52 128 7 4 18 23 24 42 16 48
51 48 96 0 18 -19 37 -35 43 -35 6 0 24 -19 41 -41 27 -38 30 -48 28 -110 -2
-54 1 -72 16 -88 24 -27 60 -27 97 0 27 19 29 25 29 89 0 66 -2 72 -45 134
-25 36 -75 92 -111 125 -60 55 -64 61 -52 80 7 12 21 24 30 27 10 3 43 22 75
43 44 29 72 40 118 45 32 4 62 11 65 16 8 13 66 18 150 13 64 -4 85 -11 143
-44z m-2638 -1419 c112 -26 358 -66 490 -80 248 -25 1241 -56 1262 -38 10 8
13 7 13 -5 0 -8 11 -39 24 -68 32 -74 153 -587 160 -679 3 -41 10 -109 16
-150 12 -80 4 -410 -10 -410 -4 0 -9 -38 -12 -84 -2 -47 -10 -91 -16 -99 -7
-8 -25 -52 -41 -98 -36 -105 -77 -185 -109 -210 -18 -14 -41 -19 -85 -19 -72
0 -127 28 -172 88 -16 21 -41 46 -55 54 -28 16 -44 55 -68 170 -10 42 -20 80
-24 84 -5 4 -8 22 -8 40 0 18 -4 36 -10 39 -5 3 -10 29 -10 57 0 41 3 51 19
55 11 3 22 11 25 18 2 7 13 11 24 9 22 -6 142 116 142 145 0 10 11 29 24 42
51 51 85 208 86 391 0 95 -1 98 -31 133 -35 40 -77 65 -108 65 -11 0 -41 -11
-67 -25 -26 -14 -52 -25 -59 -25 -16 0 -103 -87 -120 -121 -49 -94 -75 -256
-79 -493 l-1 -89 -85 -23 c-205 -56 -499 -73 -622 -34 -34 11 -70 20 -78 20
-8 0 -41 8 -73 17 -47 15 -57 22 -55 38 2 12 12 21 25 23 13 2 43 22 69 45 38
35 46 48 47 80 1 43 -7 54 -51 67 -29 8 -38 5 -79 -27 -83 -63 -197 -84 -226
-40 -8 12 -26 35 -41 50 -14 15 -26 39 -26 53 0 13 -11 34 -25 46 -25 21 -61
110 -51 126 3 5 -4 42 -14 83 -37 143 -50 278 -50 534 0 134 3 251 6 259 4 10
13 14 23 12 9 -3 56 -15 106 -26z m1535 -809 c0 -78 -3 -103 -16 -116 -18 -18
-45 -110 -38 -130 7 -17 -107 -155 -128 -155 -14 0 -9 183 7 276 27 154 70
224 137 224 l38 0 0 -99z"/>
<path d="M17384 7589 c-39 -11 -59 -47 -51 -95 8 -47 33 -73 83 -84 57 -14 87
11 97 79 9 65 -2 87 -51 101 -20 5 -39 10 -42 9 -3 0 -19 -5 -36 -10z"/>
<path d="M14985 6161 c-11 -5 -38 -27 -59 -49 -37 -38 -39 -45 -44 -114 -2
-40 1 -100 7 -133 9 -50 17 -66 47 -92 35 -31 42 -33 110 -33 63 0 76 3 102
25 48 40 62 82 61 182 0 113 -13 150 -66 186 -44 32 -120 45 -158 28z"/>
<path d="M15923 6005 c-42 -30 -57 -148 -26 -212 28 -61 115 -73 173 -25 31
26 34 34 38 93 2 35 -1 76 -7 91 -22 58 -127 89 -178 53z"/>
<path d="M10000 7130 c-163 -20 -277 -68 -381 -158 -131 -113 -191 -200 -246
-357 l-28 -80 -3 -858 c-2 -672 0 -862 10 -874 10 -12 37 -14 149 -11 76 1
141 7 146 11 4 5 10 381 13 835 l5 827 26 66 c54 140 115 218 211 270 63 34
63 34 198 34 125 -1 140 -3 202 -29 95 -40 175 -118 214 -211 27 -65 29 -79
29 -200 0 -120 -2 -135 -29 -203 -70 -173 -233 -272 -448 -272 -47 0 -126 -3
-176 -6 l-92 -7 0 -138 0 -139 173 0 c341 0 559 70 718 229 88 88 150 201 174
316 23 108 20 323 -5 419 -36 135 -132 302 -210 365 -163 131 -424 200 -650
171z"/>
<path d="M2840 6246 c0 -891 2 -923 51 -1074 43 -130 151 -251 283 -316 128
-63 151 -66 547 -66 208 0 368 4 383 10 l26 10 0 125 c0 92 -3 127 -12 130 -7
2 -159 8 -338 14 -358 11 -397 17 -473 75 -52 39 -91 103 -113 181 -21 75 -32
489 -33 1233 l-1 512 -160 0 -160 0 0 -834z"/>
<path d="M13163 6568 c-122 -118 -433 -446 -433 -458 0 -6 49 -10 130 -10
l130 0 0 -403 c0 -375 1 -409 21 -482 29 -112 66 -182 129 -246 68 -69 171
-120 302 -150 94 -21 253 -31 276 -16 8 6 12 45 12 136 l0 128 -104 16 c-186
29 -266 73 -299 165 -28 77 -34 186 -29 530 l4 312 57 1 c31 1 126 4 211 8
l155 6 3 133 3 132 -68 1 c-37 1 -133 4 -213 8 l-145 6 -7 45 c-3 25 -7 84 -7
133 -1 80 -3 87 -21 87 -12 0 -57 -35 -107 -82z"/>
<path d="M8210 6386 c-187 -40 -329 -131 -434 -280 -116 -163 -161 -322 -160
-566 1 -167 17 -240 84 -375 63 -128 123 -202 211 -261 228 -151 540 -193 801
-107 99 33 219 101 235 133 12 24 8 29 -76 114 l-89 89 -61 -26 c-98 -42 -170
-57 -283 -57 -120 0 -183 15 -275 66 -108 60 -195 182 -222 312 -28 134 -4
320 56 434 55 105 102 152 202 201 l86 42 130 0 c124 0 132 -1 178 -28 67 -40
80 -64 85 -162 5 -99 -7 -143 -55 -196 -52 -57 -132 -80 -303 -85 -199 -7
-180 6 -180 -130 l0 -117 198 6 c221 6 277 17 401 82 128 68 242 217 256 338
3 28 2 104 -3 167 -10 137 -31 188 -108 266 -100 102 -226 143 -459 149 -104
3 -170 0 -215 -9z"/>
<path d="M11790 6391 c-165 -31 -308 -100 -404 -197 -166 -167 -244 -397 -234
-693 6 -155 27 -234 101 -376 107 -203 327 -337 601 -366 186 -20 349 9 523
94 68 33 88 48 101 74 l16 34 -87 87 -87 87 -32 -14 c-151 -62 -161 -64 -289
-69 -138 -5 -197 6 -293 55 -62 32 -142 112 -180 182 -82 151 -86 379 -11 539
67 142 123 198 251 248 61 24 83 27 189 28 130 1 171 -11 222 -66 32 -34 47
-125 34 -200 -15 -89 -42 -125 -120 -161 -60 -29 -77 -32 -226 -40 -88 -5
-167 -12 -175 -16 -12 -6 -16 -33 -18 -121 l-3 -112 193 5 c205 5 291 20 403
71 103 47 230 195 256 300 8 32 10 93 6 183 -5 128 -7 140 -38 200 -59 116
-165 192 -319 228 -84 20 -308 29 -380 16z"/>
<path d="M4415 6105 c-9 -335 -1 -863 15 -930 43 -180 158 -291 360 -349 88
-25 263 -36 603 -36 l317 0 0 790 0 790 -140 0 -140 0 0 -651 0 -651 -217 5
c-231 5 -274 12 -375 63 -54 27 -79 59 -101 129 -31 93 -37 189 -37 580 0 215
-3 420 -7 458 l-6 67 -132 0 -133 0 -7 -265z"/>
<path d="M6050 6334 c0 -73 32 -251 59 -332 16 -45 44 -107 62 -138 44 -73
137 -175 183 -199 20 -11 36 -22 36 -26 0 -4 -41 -53 -91 -110 -114 -131 -142
-171 -180 -260 -53 -124 -95 -376 -75 -453 l6 -26 114 0 c62 0 127 3 144 6 30
6 30 6 37 93 17 218 71 356 185 472 122 125 223 119 353 -19 82 -88 142 -251
152 -416 10 -150 -4 -136 136 -136 66 0 129 5 140 10 17 9 19 22 19 105 0 218
-50 374 -172 543 -21 28 -45 52 -53 52 -8 0 -15 6 -15 13 0 7 -18 30 -40 52
-21 22 -39 49 -40 59 0 11 28 46 63 80 118 115 160 180 211 329 28 81 56 287
43 320 -6 15 -24 17 -146 17 l-139 0 -7 -82 c-17 -193 -76 -318 -197 -419 -74
-62 -108 -79 -153 -79 -82 0 -210 122 -275 263 -28 61 -60 189 -60 244 0 15
-3 38 -6 51 -6 22 -9 22 -150 22 l-144 0 0 -36z"/>
<path d="M17414 5641 c-32 -19 -54 -64 -54 -108 0 -15 14 -39 34 -59 58 -58
130 -41 156 39 16 50 5 91 -32 122 -35 30 -62 31 -104 6z"/>
<path d="M18213 5643 c-53 -10 -81 -102 -52 -167 23 -50 132 -58 164 -13 22
31 20 129 -2 155 -18 21 -71 33 -110 25z"/>
<path d="M17830 5450 c-82 -8 -121 -27 -133 -64 -15 -46 12 -90 73 -118 51
-23 52 -23 45 -62 -7 -45 -29 -92 -47 -98 -7 -3 -49 -1 -93 4 -105 11 -125 3
-125 -52 0 -23 5 -50 10 -60 14 -26 70 -40 162 -40 66 0 85 4 126 27 l47 26
40 -26 c64 -41 205 -42 253 -2 39 32 51 89 26 117 -16 17 -26 19 -90 13 -39
-4 -85 -4 -102 -1 -27 6 -31 13 -45 67 l-15 59 34 16 c43 20 94 81 94 111 0
36 -41 74 -90 84 -50 9 -76 9 -170 -1z"/>
</g>
</svg>
